<?xml version="1.0" standalone="no"?>
<!DOCTYPE svg PUBLIC "-//W3C//DTD SVG 20010904//EN"
 "http://www.w3.org/TR/2001/REC-SVG-20010904/DTD/svg10.dtd">
<svg version="1.0" xmlns="http://www.w3.org/2000/svg"
 width="344.000000pt" height="344.000000pt" viewBox="0 0 344.000000 344.000000"
 preserveAspectRatio="xMidYMid meet">
<metadata>
Created by potrace 1.10, written by Peter Selinger 2001-2011
</metadata>
<g transform="translate(0.000000,344.000000) scale(0.100000,-0.100000)"
fill="#708090" stroke="none">
<path d="M1762 3200 c164 -11 294 -36 445 -86 106 -35 114 -37 153 -24 51 17
47 22 -11 12 -36 -7 -60 -2 -139 24 -155 52 -272 73 -437 78 l-148 5 137 -9z"/>
<path d="M1455 3192 c-3 -3 -145 -39 -180 -45 -11 -2 -37 -11 -59 -20 -21 -9
-42 -14 -47 -11 -5 3 -9 0 -9 -5 0 -6 -5 -11 -11 -11 -18 0 -209 -93 -209
-102 0 -4 -4 -8 -9 -8 -31 0 -331 -240 -331 -264 1 -6 8 -2 18 10 9 11 25 25
34 30 9 5 38 30 65 55 60 57 207 156 316 214 133 70 333 131 507 155 l65 8
-73 -1 c-41 -1 -75 -3 -77 -5z"/>
<path d="M1495 3164 c-154 -23 -321 -76 -458 -145 -56 -29 -197 -115 -207
-128 -3 -3 -27 -24 -55 -46 -72 -58 -140 -126 -138 -136 2 -5 -1 -8 -6 -6 -13
3 -102 -103 -95 -114 3 -5 1 -8 -4 -7 -18 5 -71 -78 -65 -101 3 -12 1 -21 -6
-21 -6 0 -11 6 -11 13 0 6 -11 -6 -25 -28 -26 -43 -34 -72 -10 -41 8 11 17 17
21 14 3 -4 -5 -16 -18 -28 -51 -47 -58 -54 -58 -61 0 -4 14 -1 30 8 27 13 80
79 80 99 0 14 85 142 139 209 208 260 478 425 784 481 124 23 320 20 446 -6
57 -11 112 -25 122 -31 10 -5 55 -14 100 -20 45 -5 100 -16 122 -24 36 -12 44
-12 75 4 l34 18 -73 26 c-226 80 -487 106 -724 71z m193 -1 c-10 -2 -26 -2
-35 0 -10 3 -2 5 17 5 19 0 27 -2 18 -5z m207 -10 c33 -4 67 -6 77 -4 9 1 19
-3 23 -9 3 -6 10 -8 15 -5 9 6 97 -18 136 -37 11 -5 24 -8 30 -7 11 3 64 -18
64 -25 0 -3 -5 -8 -12 -12 -7 -4 -8 -3 -4 5 6 8 1 11 -16 9 -35 -4 -118 13
-112 23 3 5 -1 6 -9 3 -14 -5 -59 2 -172 27 -27 6 -76 17 -108 23 -62 12 -68
31 -7 22 19 -3 62 -9 95 -13z m-1393 -633 c-15 -26 -32 -40 -32 -25 0 5 42 55
46 55 2 0 -5 -13 -14 -30z m-55 -82 c-3 -8 -6 -5 -6 6 -1 11 2 17 5 13 3 -3 4
-12 1 -19z"/>
<path d="M1475 3124 c-197 -29 -394 -103 -550 -207 -83 -55 -98 -69 -84 -77 6
-4 26 8 44 27 22 22 39 32 47 27 7 -4 10 -4 6 1 -8 9 81 68 155 103 30 14 47
18 47 10 0 -7 5 -5 13 4 6 9 21 18 32 20 11 2 23 7 26 11 3 5 12 10 20 11 8 2
22 6 32 11 10 4 24 2 33 -6 12 -10 15 -10 12 1 -2 10 17 17 62 26 141 26 231
31 360 20 107 -9 111 -28 6 -27 -10 0 -31 -6 -46 -14 -15 -8 -39 -16 -53 -19
-14 -2 -35 -9 -47 -16 -11 -6 -31 -8 -43 -5 -15 4 -18 3 -9 -3 9 -6 -5 -16
-50 -32 -35 -13 -67 -23 -71 -22 -5 1 -5 -3 -1 -9 5 -9 2 -10 -10 -6 -10 4
-15 3 -11 -3 6 -10 -7 -14 -33 -11 -7 1 -11 -4 -10 -11 2 -7 -5 -13 -15 -13
-11 0 -26 -9 -35 -20 -10 -12 -29 -20 -44 -20 -21 1 -25 -2 -16 -12 10 -12 0
-18 -25 -14 -5 1 -6 -3 -2 -9 3 -5 2 -10 -3 -10 -5 0 -22 -12 -37 -27 -16 -16
-25 -21 -20 -14 10 17 -89 -74 -176 -161 -60 -61 -73 -69 -62 -41 4 9 2 14 -3
10 -6 -3 -22 5 -36 18 -17 15 -44 26 -75 30 -41 6 -53 3 -85 -18 -20 -14 -40
-22 -44 -19 -4 4 -4 1 0 -5 4 -7 3 -13 -3 -13 -5 0 -14 -23 -20 -51 -9 -42 -9
-53 4 -65 16 -17 18 -14 15 32 -1 17 6 38 14 46 8 9 13 18 10 21 -3 3 12 17
34 32 36 24 44 25 78 16 43 -12 104 -62 104 -85 0 -9 28 15 63 52 124 133 310
278 449 348 154 78 350 134 475 134 73 1 56 12 -52 35 -77 16 -308 28 -370 19z"/>
<path d="M2360 3071 c-23 -7 -20 -10 40 -41 74 -37 214 -128 248 -160 29 -27
33 -24 22 20 -4 19 -8 27 -9 18 -1 -24 -14 -23 -36 2 -10 11 -24 20 -32 20 -8
0 -11 5 -7 12 4 7 3 8 -4 4 -6 -4 -20 2 -32 14 -11 11 -27 20 -36 20 -9 0 -12
5 -8 13 4 6 4 9 -1 5 -4 -4 -14 0 -22 8 -8 8 -19 12 -24 9 -5 -4 -9 -3 -9 2 0
4 -13 14 -30 21 -34 15 -38 28 -12 35 14 4 13 5 -3 5 -11 0 -31 -3 -45 -7z"/>
<path d="M1845 3053 c-262 -32 -539 -172 -773 -391 -46 -42 -84 -85 -86 -94
-1 -9 -29 -45 -62 -80 l-59 -63 75 -6 c41 -4 100 -9 130 -13 53 -6 58 -5 125
38 72 47 198 111 320 164 102 44 251 102 262 102 6 0 41 28 79 61 38 34 93 79
122 101 28 22 52 42 52 45 0 2 -55 2 -122 -1 -264 -10 -516 -89 -739 -232 -38
-24 -67 -48 -64 -53 3 -5 -10 -14 -29 -21 -18 -6 -42 -20 -51 -30 -10 -11 -23
-20 -28 -20 -20 0 40 53 123 110 254 171 534 260 822 260 103 0 110 1 158 31
27 17 50 33 50 35 0 2 -30 17 -66 34 -67 30 -133 36 -239 23z m185 -25 c0 -5
4 -6 10 -3 5 3 21 -2 35 -11 24 -16 25 -18 9 -35 -9 -10 -23 -15 -32 -12 -10
4 -13 2 -8 -5 7 -11 -63 -15 -301 -17 -22 0 -39 -3 -37 -6 8 -13 -24 -17 -36
-6 -10 9 -11 9 -5 -1 5 -10 1 -13 -11 -12 -11 1 -22 2 -26 1 -5 0 -9 -1 -10
-1 -2 1 -34 -11 -73 -26 -38 -15 -86 -27 -105 -26 -22 1 -30 -2 -21 -7 10 -6
5 -11 -17 -16 -18 -3 -37 -3 -43 1 -9 5 -10 2 -6 -11 6 -14 3 -16 -12 -12 -12
3 -22 -1 -26 -11 -3 -8 -8 -12 -12 -9 -3 4 -12 2 -20 -4 -7 -6 -13 -7 -13 -2
0 11 118 80 200 118 19 9 52 25 72 36 21 11 39 19 40 19 2 -1 17 4 33 10 17 7
45 14 64 17 27 5 32 3 26 -7 -5 -9 -4 -11 4 -6 6 4 9 11 6 16 -7 12 86 32 185
39 93 7 130 4 130 -11z m-80 -135 c0 6 3 7 7 3 5 -4 -1 -14 -11 -22 -11 -7
-32 -25 -48 -39 -15 -14 -28 -22 -28 -19 0 4 -8 0 -17 -8 -10 -8 -26 -18 -36
-22 -11 -3 -21 -15 -24 -26 -3 -11 -17 -23 -32 -26 -14 -4 -30 -10 -36 -15 -5
-4 -14 -8 -20 -9 -5 -1 -21 -7 -35 -12 -14 -5 -33 -11 -44 -14 -10 -2 -29 -10
-42 -19 -13 -8 -31 -15 -40 -15 -9 0 -27 -9 -41 -20 -14 -11 -39 -20 -55 -20
-19 0 -27 -4 -22 -11 4 -7 -1 -10 -12 -7 -10 2 -29 -6 -41 -18 -13 -12 -44
-29 -70 -39 -27 -10 -66 -31 -87 -47 -48 -34 -56 -35 -56 -4 0 14 -5 37 -10
52 -7 17 -7 31 -1 37 5 5 6 21 2 36 -10 33 -4 51 15 44 8 -3 14 -1 14 5 0 13
97 73 121 75 10 1 16 4 13 8 -6 11 34 22 47 13 8 -4 9 -3 5 4 -4 7 -1 12 9 12
9 0 14 3 12 8 -3 4 6 8 20 9 14 0 29 6 32 12 8 13 101 32 115 24 5 -4 6 -1 2
5 -4 7 9 14 36 19 36 8 45 6 56 -9 19 -26 49 -23 56 6 7 29 20 34 104 42 37 4
68 8 70 9 2 2 19 -1 38 -5 22 -5 34 -4 34 3z m-262 -40 c-4 -22 -22 -20 -26 1
-2 10 3 16 13 16 10 0 15 -7 13 -17z m132 -88 c-7 -9 -15 -13 -17 -11 -7 7 7
26 19 26 6 0 6 -6 -2 -15z m-690 -157 c-1 -33 -45 -56 -62 -33 -13 17 -9 25
11 25 11 0 23 5 26 10 9 14 25 12 25 -2z m-15 -78 c20 -22 16 -74 -6 -78 -9
-2 -31 11 -49 28 -34 32 -45 36 -55 20 -4 -6 -1 -9 7 -8 7 2 12 -3 10 -10 -3
-14 15 -36 38 -45 8 -3 -3 -6 -25 -6 -25 0 -35 2 -27 8 11 7 11 9 -2 14 -9 4
-16 2 -16 -3 0 -6 -19 -9 -42 -9 -27 1 -34 3 -19 6 16 3 20 7 12 13 -9 5 -6
15 13 35 14 15 26 23 26 17 0 -6 -7 -15 -16 -20 -11 -6 -13 -11 -5 -16 6 -4
11 -2 11 4 0 6 5 8 12 4 6 -4 8 -3 5 3 -3 5 1 19 9 31 12 18 19 20 34 12 22
-12 30 -13 29 -2 -4 25 34 27 56 2z"/>
<path d="M1460 2880 c-9 -6 -10 -10 -3 -10 6 0 15 5 18 10 8 12 4 12 -15 0z"/>
<path d="M1904 2865 c-10 -8 -14 -15 -8 -15 6 0 17 7 24 15 16 19 9 19 -16 0z"/>
<path d="M1595 2830 c27 -12 43 -12 25 0 -8 5 -22 9 -30 9 -10 0 -8 -3 5 -9z"/>
<path d="M1465 2630 c-3 -6 1 -7 9 -4 18 7 21 14 7 14 -6 0 -13 -4 -16 -10z"/>
<path d="M2120 3027 c34 -17 50 -21 65 -13 18 9 16 11 -20 22 -22 7 -51 13
-65 13 -19 1 -15 -4 20 -22z"/>
<path d="M2273 3037 c-21 -12 -20 -13 25 -31 26 -11 64 -30 84 -43 21 -13 53
-23 73 -23 44 0 85 -20 117 -58 23 -28 68 -49 68 -31 0 24 -288 199 -327 199
-10 -1 -28 -6 -40 -13z m47 -7 c0 -5 -8 -10 -17 -10 -15 0 -16 2 -3 10 19 12
20 12 20 0z m75 -31 c22 -13 45 -22 50 -21 6 2 6 0 2 -4 -12 -12 -37 -14 -37
-3 0 6 -5 7 -12 3 -6 -4 -8 -3 -5 3 3 5 -10 15 -29 22 -18 7 -34 16 -34 21 0
13 21 6 65 -21z"/>
<path d="M2210 3004 c-14 -7 -20 -13 -14 -14 5 0 36 -15 67 -34 54 -33 69 -35
117 -19 16 5 -7 19 -95 59 -45 19 -54 20 -75 8z"/>
<path d="M2123 2952 l-43 -28 73 -11 c39 -5 77 -7 82 -3 6 4 19 10 30 12 15 3
8 10 -32 31 -29 15 -56 27 -60 27 -4 0 -27 -13 -50 -28z m78 -6 c15 9 10 -3
-8 -17 -12 -10 -15 -11 -9 -1 6 10 1 11 -21 7 l-28 -7 25 14 c14 8 27 10 28 6
2 -4 8 -6 13 -2z"/>
<path d="M1315 2940 c-3 -6 1 -7 9 -4 18 7 21 14 7 14 -6 0 -13 -4 -16 -10z"/>
<path d="M2371 2918 l-34 -9 34 -29 c28 -24 43 -29 84 -29 l50 0 -35 30 c-50
43 -61 47 -99 37z m74 -47 c-3 -3 -10 1 -15 9 -7 11 -10 12 -10 2 0 -7 -5 -10
-11 -6 -8 4 -7 9 2 15 14 8 44 -9 34 -20z"/>
<path d="M2481 2890 c30 -26 54 -39 73 -40 l30 0 -29 30 c-25 26 -77 50 -109
50 -5 0 11 -18 35 -40z"/>
<path d="M1980 2850 c-88 -72 -146 -128 -114 -112 11 6 67 23 125 38 97 26
209 81 209 103 0 10 -27 18 -95 26 -49 6 -51 5 -125 -55z m148 23 c-5 -7 -6
-18 -2 -24 4 -8 3 -9 -4 -5 -7 4 -12 3 -12 -2 0 -16 -82 -33 -98 -20 -10 9
-12 8 -10 -2 2 -8 -6 -16 -17 -18 -18 -3 -17 -1 6 22 14 15 41 35 60 45 39 21
93 24 77 4z"/>
<path d="M2095 2870 c3 -5 8 -10 11 -10 2 0 4 5 4 10 0 6 -5 10 -11 10 -5 0
-7 -4 -4 -10z"/>
<path d="M2690 2873 c0 -20 5 -33 13 -34 6 0 33 -4 59 -8 26 -4 45 -4 43 0 -3
4 -23 10 -45 14 -29 5 -44 14 -55 33 l-14 27 -1 -32z"/>
<path d="M2320 2880 c0 -5 5 -10 11 -10 5 0 7 5 4 10 -3 6 -8 10 -11 10 -2 0
-4 -4 -4 -10z"/>
<path d="M2170 2830 c-9 -6 -10 -10 -3 -10 6 0 15 5 18 10 8 12 4 12 -15 0z"/>
<path d="M2480 2831 l-35 -6 32 -13 c17 -8 37 -11 44 -6 7 4 10 3 6 -3 -4 -6
9 -20 28 -32 31 -18 34 -18 26 -3 -5 9 -22 29 -38 43 -23 20 -35 24 -63 20z"/>
<path d="M2550 2830 c1 -3 15 -21 32 -40 17 -19 28 -27 24 -17 -3 11 -9 29
-12 41 -3 13 -13 22 -25 22 -10 0 -19 -3 -19 -6z"/>
<path d="M2370 2792 c-12 -47 -41 -64 -100 -60 -38 2 -48 8 -65 35 -20 32 -20
32 -90 18 -51 -11 -363 -286 -440 -388 -24 -33 -26 -41 -16 -63 7 -16 17 -24
26 -20 40 15 264 56 364 67 110 11 414 7 471 -6 23 -6 27 -2 39 42 34 120 50
207 39 220 -6 7 -14 10 -19 7 -5 -3 -6 2 -3 10 7 19 -12 22 -20 4 -3 -7 -4 -4
-1 8 4 16 -12 37 -69 92 -41 40 -81 72 -90 72 -9 0 -19 -15 -26 -38z m30 -7
c0 -8 -4 -15 -10 -15 -5 0 -10 7 -10 15 0 8 5 15 10 15 6 0 10 -7 10 -15z m35
-15 c4 -6 11 -7 17 -4 8 5 9 1 5 -10 -5 -13 -3 -17 6 -13 13 5 52 -29 72 -62
6 -10 4 -12 -6 -7 -8 4 1 -6 19 -22 17 -15 32 -36 32 -45 0 -34 -22 -117 -30
-112 -4 3 -10 -2 -13 -10 -4 -10 -1 -12 11 -9 13 5 14 4 3 -4 -8 -6 -11 -17
-8 -26 4 -9 2 -16 -3 -16 -5 0 -6 -8 -3 -17 6 -16 5 -16 -10 -4 -16 12 -17 12
-10 -5 6 -17 5 -18 -11 -4 -25 20 -375 19 -501 -2 -49 -8 -93 -11 -96 -6 -3 5
-13 6 -23 2 -13 -5 -14 -9 -6 -14 7 -4 -17 -7 -53 -6 -36 0 -63 -2 -61 -6 2
-3 -10 -11 -27 -17 -25 -8 -30 -8 -26 3 3 7 -1 13 -9 13 -8 0 -14 -5 -14 -10
0 -6 -3 -8 -6 -4 -14 14 102 141 122 133 7 -3 16 -1 19 4 4 6 1 10 -4 10 -6 0
-11 5 -11 10 0 6 11 8 26 4 19 -5 25 -4 20 5 -4 6 -12 9 -17 6 -5 -4 -9 -1 -9
4 0 6 9 11 21 11 11 0 18 4 15 9 -8 13 21 34 35 25 8 -4 9 -3 5 4 -4 7 7 26
25 44 17 18 28 27 24 20 -6 -12 -3 -12 16 -2 31 17 39 25 15 16 -19 -7 -19 -6
-2 13 9 10 31 25 47 31 16 7 26 16 24 20 -3 5 4 11 15 15 11 3 20 11 20 16 0
6 5 7 10 4 6 -3 10 -3 10 2 0 4 17 9 37 10 26 1 33 -1 23 -7 -13 -9 -13 -10 0
-11 8 -1 18 -1 22 0 4 0 5 -6 1 -15 -3 -8 -2 -14 3 -13 17 2 54 -13 49 -21 -3
-4 12 -4 33 1 47 11 54 11 48 1 -3 -5 1 -9 9 -9 8 0 12 4 9 9 -3 4 5 8 18 8
18 0 20 2 9 9 -12 8 -12 12 -2 25 8 9 20 16 27 16 8 0 14 5 14 10 0 13 17 13
25 0z"/>
<path d="M2380 2740 c-13 -8 -12 -10 3 -10 9 0 17 5 17 10 0 12 -1 12 -20 0z"/>
<path d="M2118 2733 c7 -3 16 -2 19 1 4 3 -2 6 -13 5 -11 0 -14 -3 -6 -6z"/>
<path d="M1740 2421 c0 -10 19 -25 25 -20 1 2 -3 10 -11 17 -8 7 -14 8 -14 3z"/>
<path d="M1818 2383 c6 -2 18 -2 25 0 6 3 1 5 -13 5 -14 0 -19 -2 -12 -5z"/>
<path d="M2616 2788 c8 -62 11 -68 33 -68 20 0 31 25 31 78 0 30 -2 32 -35 32
l-35 0 6 -42z m36 -30 c-8 -8 -9 -4 -5 13 4 13 8 18 11 10 2 -7 -1 -18 -6 -23z"/>
<path d="M730 2753 c-84 -82 -172 -197 -228 -298 -23 -41 -42 -76 -42 -78 0
-2 30 5 68 14 37 10 81 18 97 19 50 1 75 11 75 31 0 23 -13 24 -44 4 -13 -9
-43 -17 -68 -20 -25 -2 -57 -9 -71 -14 -25 -10 -26 -9 -15 14 6 14 17 25 25
25 7 0 13 11 13 24 0 23 19 53 67 104 13 14 23 31 23 38 0 8 6 14 14 14 8 0
18 5 22 12 5 7 3 8 -6 3 -8 -5 -11 -3 -9 4 3 7 9 13 14 14 6 1 27 24 49 51 21
26 46 51 56 53 16 4 47 53 34 53 -3 0 -36 -30 -74 -67z"/>
<path d="M820 2805 c-7 -9 -8 -15 -2 -15 5 0 12 7 16 15 3 8 4 15 2 15 -2 0
-9 -7 -16 -15z"/>
<path d="M2755 2775 c45 -41 54 -45 88 -40 20 3 37 1 37 -4 0 -5 7 -11 15 -15
13 -4 14 -2 5 14 -8 14 -21 20 -48 20 -37 0 -106 39 -70 40 9 0 20 -5 23 -10
4 -6 10 -8 15 -5 5 3 19 1 31 -6 14 -7 19 -7 15 0 -7 10 -126 51 -149 51 -7 0
11 -20 38 -45z"/>
<path d="M2692 2765 c3 -44 7 -52 35 -70 18 -11 32 -24 33 -28 0 -5 -14 1 -31
13 -67 49 -30 0 51 -65 l25 -20 -20 24 c-11 13 -19 25 -17 27 9 16 -2 43 -23
52 -16 8 -23 17 -19 27 5 11 2 14 -12 8 -12 -4 -15 -3 -10 5 9 16 33 15 39 0
2 -7 8 -9 13 -5 4 4 -9 24 -29 45 l-38 37 3 -50z"/>
<path d="M880 2779 c-11 -19 -10 -20 9 -9 22 11 29 30 11 30 -5 0 -14 -9 -20
-21z"/>
<path d="M950 2780 c25 -25 25 -34 3 -56 -17 -17 -17 -18 2 -10 15 5 17 4 8
-5 -6 -6 -29 -10 -52 -7 -26 2 -37 0 -31 -6 6 -6 26 -10 46 -9 37 1 58 18 49
40 -2 6 1 13 6 15 12 4 -27 58 -42 58 -5 0 0 -9 11 -20z"/>
<path d="M2535 2731 c38 -39 71 -71 72 -71 2 0 3 15 3 33 0 31 -5 35 -72 71
l-73 39 70 -72z"/>
<path d="M2270 2780 c0 -5 5 -10 10 -10 6 0 10 5 10 10 0 6 -4 10 -10 10 -5 0
-10 -4 -10 -10z"/>
<path d="M2000 2760 c-14 -4 -64 -20 -111 -34 -83 -25 -88 -28 -160 -103 -41
-43 -92 -100 -114 -127 -22 -27 -55 -65 -73 -85 -28 -29 -32 -41 -28 -66 8
-37 20 -49 41 -41 11 4 14 12 10 27 -5 14 -3 19 3 15 6 -3 62 44 125 106 143
142 207 202 277 258 30 24 59 47 65 52 11 10 -1 9 -35 -2z m-90 -69 c0 -3 -10
-12 -21 -20 -19 -11 -21 -11 -15 4 3 9 6 21 6 26 0 4 7 6 15 3 8 -4 15 -9 15
-13z m-46 -18 c-4 -16 -15 -37 -25 -47 -18 -20 -19 -20 -41 0 l-23 19 18 -21
c18 -21 23 -39 9 -30 -5 3 -16 -4 -25 -15 -9 -10 -14 -19 -11 -19 3 0 -2 -7
-11 -16 -9 -9 -19 -14 -22 -10 -3 3 -12 1 -18 -4 -9 -8 -14 -6 -19 5 -4 11 14
35 54 76 33 32 64 59 70 59 5 0 10 4 10 10 0 5 7 7 15 4 8 -4 15 -1 15 5 0 6
2 11 5 11 3 0 2 -12 -1 -27z m-164 -158 c10 -12 9 -16 -4 -21 -9 -3 -13 -10
-10 -15 3 -5 -2 -6 -11 -3 -10 4 -14 2 -10 -7 4 -14 -23 -50 -60 -79 -17 -14
-18 -13 -12 3 7 18 -7 24 -18 7 -3 -5 -11 -10 -17 -10 -7 0 -3 8 8 18 10 10
30 33 42 50 14 18 30 28 38 25 9 -3 13 0 11 8 -2 8 -2 11 0 7 10 -17 24 -7 18
12 -7 23 7 26 25 5z m-130 -146 c0 -5 -4 -7 -10 -4 -5 3 -10 1 -10 -5 0 -6 -5
-8 -10 -5 -6 4 -8 11 -5 16 8 12 35 11 35 -2z"/>
<path d="M1825 2640 c-3 -6 1 -7 9 -4 18 7 21 14 7 14 -6 0 -13 -4 -16 -10z"/>
<path d="M1756 2595 c-11 -8 -17 -17 -14 -20 2 -3 13 4 23 15 21 23 18 25 -9
5z"/>
<path d="M1705 2560 c-3 -6 1 -7 9 -4 18 7 21 14 7 14 -6 0 -13 -4 -16 -10z"/>
<path d="M1637 2462 c3 -9 2 -14 -2 -10 -9 9 -40 -30 -31 -39 5 -5 19 7 44 38
10 14 10 18 -2 22 -11 4 -13 1 -9 -11z"/>
<path d="M2760 2715 c0 -9 5 -15 11 -13 6 2 11 8 11 13 0 5 -5 11 -11 13 -6 2
-11 -4 -11 -13z"/>
<path d="M536 2654 c-21 -31 -36 -57 -34 -58 2 -2 25 23 51 56 27 33 42 58 34
58 -8 0 -31 -25 -51 -56z"/>
<path d="M1705 2665 c-16 -8 -75 -33 -130 -56 -55 -24 -118 -54 -140 -68 -22
-13 -42 -24 -45 -24 -3 1 -23 -9 -45 -22 -22 -13 -75 -40 -118 -61 l-77 -38
57 -13 c130 -27 132 -27 159 -2 23 22 53 27 108 17 10 -2 23 6 30 16 6 11 40
49 76 85 180 183 189 196 125 166z m-75 -64 c0 -4 -17 -15 -37 -23 -31 -11
-35 -15 -20 -21 11 -4 16 -3 12 3 -3 6 -2 10 4 10 5 0 17 3 26 6 9 4 2 -8 -15
-25 -31 -31 -47 -40 -35 -21 3 6 1 10 -4 10 -6 0 -11 -5 -11 -11 0 -5 -4 -7
-10 -4 -18 11 -32 -5 -19 -21 10 -12 14 -12 20 -2 4 7 10 10 13 7 3 -3 0 -14
-7 -23 -11 -16 -17 -17 -36 -7 -12 7 -19 17 -15 24 4 7 -2 4 -13 -6 -11 -9
-20 -24 -20 -32 0 -13 2 -13 17 0 18 16 30 11 30 -13 0 -8 -6 -12 -15 -9 -8 4
-17 2 -20 -4 -4 -5 -21 -7 -38 -4 -22 4 -45 -1 -71 -14 -21 -11 -43 -18 -47
-15 -16 10 -9 24 15 30 13 3 30 18 38 32 7 15 21 28 32 30 10 2 15 -1 12 -6
-5 -8 13 -9 47 -3 4 0 7 6 7 11 0 6 -11 8 -25 4 -35 -9 -32 12 4 24 20 7 32 7
40 -1 11 -11 12 -9 15 14 1 12 3 14 76 47 54 25 50 24 50 13z m-309 -152 c-12
-12 -25 -19 -28 -16 -8 8 20 36 36 37 10 0 8 -7 -8 -21z m-11 -44 c26 -28 16
-33 -18 -10 -16 12 -27 13 -41 6 -18 -10 -21 -3 -12 27 1 1 11 2 24 2 13 0 34
-11 47 -25z"/>
<path d="M2870 2676 c0 -2 7 -7 16 -10 8 -3 12 -2 9 4 -6 10 -25 14 -25 6z"/>
<path d="M2914 2644 c-9 -26 -8 -38 0 -47 14 -15 86 -131 106 -172 8 -16 18
-32 21 -35 5 -4 42 -95 80 -195 10 -28 12 -28 19 -10 14 33 11 45 -7 38 -12
-5 -15 -2 -10 10 3 8 0 21 -8 27 -14 12 -30 57 -26 78 1 6 -2 12 -7 12 -13 0
-32 48 -26 65 5 11 2 13 -10 9 -10 -4 -16 -1 -16 8 0 7 -11 30 -25 50 -26 39
-31 53 -15 43 6 -4 7 1 3 11 -5 13 -3 15 7 9 9 -5 11 -4 6 4 -4 6 -12 8 -18 5
-7 -5 -9 0 -6 14 4 12 2 22 -2 22 -5 0 -10 -10 -13 -22 -3 -22 -4 -22 -12 -3
-5 11 -17 26 -27 33 -18 13 -18 16 -4 38 17 25 21 44 8 44 -4 0 -12 -16 -18
-36z"/>
<path d="M2810 2666 c0 -2 7 -7 16 -10 8 -3 12 -2 9 4 -6 10 -25 14 -25 6z"/>
<path d="M2620 2647 c0 -8 9 -22 20 -32 20 -18 20 -17 20 7 0 14 -7 29 -16 32
-22 8 -24 8 -24 -7z"/>
<path d="M2684 2648 c7 -32 39 -98 49 -98 6 0 7 3 4 7 -4 3 1 15 10 25 16 18
15 20 -18 48 -37 33 -49 37 -45 18z"/>
<path d="M2957 2639 c7 -7 15 -10 18 -7 3 3 -2 9 -12 12 -14 6 -15 5 -6 -5z"/>
<path d="M925 2620 c-3 -5 -1 -10 4 -10 6 0 11 5 11 10 0 6 -2 10 -4 10 -3 0
-8 -4 -11 -10z"/>
<path d="M2671 2595 c0 -18 10 -42 24 -60 31 -37 31 -25 0 40 -22 47 -23 48
-24 20z"/>
<path d="M2615 2601 c-3 -6 -4 -11 -2 -11 6 0 -9 -75 -32 -152 -16 -54 -17
-68 -6 -68 16 0 49 94 42 121 -3 10 -2 17 3 14 10 -6 23 43 14 57 -4 7 -3 8 4
4 16 -10 15 5 -2 27 -9 12 -16 14 -21 8z"/>
<path d="M2878 2582 c7 -5 10 -16 6 -25 -4 -11 0 -19 12 -23 11 -4 27 -16 36
-28 9 -11 19 -18 22 -15 9 8 -62 99 -77 99 -9 0 -8 -3 1 -8z"/>
<path d="M445 2528 l-16 -33 20 25 c20 24 26 40 16 40 -2 0 -12 -15 -20 -32z"/>
<path d="M2656 2539 c-30 -101 -46 -170 -42 -177 3 -5 18 -12 33 -15 16 -4 49
-13 74 -21 41 -13 45 -13 44 3 -4 41 -17 81 -26 75 -5 -3 -9 4 -9 15 0 19 -42
104 -61 125 -5 6 -10 4 -13 -5z m9 -81 c-6 -19 -5 -21 6 -10 20 18 32 15 26
-9 -3 -13 2 -28 14 -40 11 -11 17 -24 14 -29 -3 -4 1 -11 7 -13 7 -3 4 -6 -7
-6 -11 0 -36 10 -56 22 -31 19 -34 24 -22 35 7 7 11 17 8 23 -7 10 3 49 11 49
3 0 2 -10 -1 -22z"/>
<path d="M2690 2381 c0 -5 5 -13 10 -16 6 -3 10 -2 10 4 0 5 -4 13 -10 16 -5
3 -10 2 -10 -4z"/>
<path d="M555 2491 c-3 -5 -2 -12 3 -15 5 -3 9 1 9 9 0 17 -3 19 -12 6z"/>
<path d="M402 2463 c-19 -29 -34 -63 -28 -63 3 0 16 20 29 45 29 51 28 59 -1
18z"/>
<path d="M628 2463 c7 -3 16 -2 19 1 4 3 -2 6 -13 5 -11 0 -14 -3 -6 -6z"/>
<path d="M2955 2437 c-5 -11 1 -28 17 -50 26 -33 96 -183 118 -251 11 -34 14
-37 23 -21 11 20 -8 90 -50 185 -19 43 -26 52 -34 40 -8 -12 -9 -10 -4 6 4 16
0 23 -17 28 -14 5 -18 9 -10 13 6 2 12 9 12 14 0 6 -4 8 -9 5 -5 -4 -7 3 -4
14 3 11 0 20 -6 20 -6 0 -11 -8 -12 -17 -1 -12 -4 -9 -9 7 -6 22 -8 23 -15 7z"/>
<path d="M2805 2421 c-29 -6 -30 -8 -19 -30 10 -20 13 -21 21 -7 7 13 9 9 10
-16 2 -58 8 -67 74 -119 91 -72 156 -138 170 -170 12 -31 29 -30 29 1 0 21
-48 149 -61 164 -4 4 -7 -8 -6 -27 0 -20 4 -34 9 -31 4 3 5 -2 2 -10 -5 -12
-13 -8 -39 21 -31 35 -32 39 -17 54 16 15 17 14 20 -5 6 -35 17 -37 16 -3 0
43 -11 66 -50 110 -6 7 -16 22 -22 33 -8 16 -18 20 -42 16 -18 -3 -38 1 -48
10 -11 9 -28 12 -47 9z m44 -78 c1 -7 -3 -13 -8 -13 -12 0 -21 38 -13 58 5 14
7 12 13 -8 4 -14 7 -31 8 -37z m64 24 c4 3 7 1 7 -6 0 -7 4 -10 9 -7 4 3 18
-5 31 -18 17 -19 21 -31 15 -56 -7 -30 -9 -32 -38 -26 -18 4 -39 13 -47 22
-13 14 -13 17 8 34 19 16 30 40 18 40 -2 0 -13 3 -23 6 -14 6 -16 4 -6 -6 8
-9 9 -19 2 -32 -16 -31 -27 -20 -27 27 0 44 0 44 22 30 12 -8 26 -12 29 -8z
m68 -164 c13 -16 12 -17 -3 -4 -17 13 -22 21 -14 21 2 0 10 -8 17 -17z"/>
<path d="M2945 2280 c3 -5 8 -10 11 -10 2 0 4 5 4 10 0 6 -5 10 -11 10 -5 0
-7 -4 -4 -10z"/>
<path d="M833 2388 c-49 -55 -203 -318 -203 -347 0 -8 24 8 53 35 28 27 72 65
96 84 24 19 59 47 76 63 18 15 37 27 43 27 6 0 12 3 14 8 3 7 74 63 93 72 5 3
28 17 50 30 l40 25 -45 6 c-25 3 -79 9 -121 13 -70 6 -76 5 -96 -16z m157 -20
c0 -4 8 -5 18 -2 9 4 4 -3 -13 -13 -16 -11 -36 -27 -44 -36 -7 -10 -19 -17
-25 -17 -6 0 -4 5 4 10 9 6 10 10 3 10 -7 0 -17 -8 -22 -19 -6 -10 -24 -24
-40 -31 -17 -7 -28 -16 -25 -21 3 -5 -3 -6 -13 -2 -16 6 -17 5 -3 -12 8 -10
10 -16 3 -12 -7 4 -23 -4 -38 -19 -14 -14 -32 -23 -40 -20 -8 3 -15 1 -15 -5
0 -6 -7 -18 -17 -27 -19 -19 -19 -19 27 71 35 68 52 85 44 45 l-5 -23 10 23
c6 12 8 29 5 37 -4 9 6 27 25 45 29 27 38 29 97 27 35 -1 64 -5 64 -9z"/>
<path d="M820 2325 c-11 -13 -10 -14 4 -9 9 3 16 10 16 15 0 13 -6 11 -20 -6z"/>
<path d="M777 2239 c7 -7 15 -10 18 -7 3 3 -2 9 -12 12 -14 6 -15 5 -6 -5z"/>
<path d="M755 2210 c-3 -5 1 -10 9 -10 9 0 16 5 16 10 0 6 -4 10 -9 10 -6 0
-13 -4 -16 -10z"/>
<path d="M605 2393 c-11 -2 -52 -13 -91 -24 l-70 -21 -32 -81 c-43 -109 -69
-203 -88 -314 l-16 -92 27 -45 c15 -25 30 -48 35 -51 4 -2 22 14 40 36 18 23
58 69 90 102 40 44 73 95 111 172 45 92 106 190 188 306 13 18 11 19 -21 19
-27 0 -37 -5 -46 -24 -8 -18 -8 -26 1 -29 8 -2 8 -5 -1 -11 -7 -4 -12 -2 -12
4 0 6 -12 15 -26 20 -14 6 -22 15 -19 21 4 6 13 8 21 5 7 -3 16 -1 19 4 6 10
-71 12 -110 3z m55 -23 c0 -5 -11 -20 -25 -34 -30 -30 -32 -55 -5 -89 25 -32
25 -37 -3 -79 -13 -19 -35 -62 -48 -95 -13 -34 -28 -59 -33 -56 -5 4 -7 -1 -3
-10 4 -12 -7 -31 -36 -61 -23 -25 -59 -65 -81 -90 -37 -44 -75 -63 -63 -32 4
10 1 13 -9 9 -9 -3 -14 2 -15 13 -1 11 -2 34 -4 52 -2 21 3 35 14 42 11 6 12
9 3 10 -9 0 -11 7 -7 21 9 28 13 49 14 72 1 11 6 15 13 11 7 -4 8 -3 4 5 -10
15 3 73 15 65 12 -7 11 7 -1 26 -6 10 -5 22 3 35 7 11 24 47 37 81 23 61 47
81 105 92 44 8 110 20 118 21 4 0 7 -3 7 -9z m54 -53 c4 5 2 -7 -6 -26 -10
-25 -21 -35 -41 -38 -18 -2 -29 2 -33 12 -9 23 5 65 22 65 9 0 12 5 8 13 -4 6
4 2 18 -11 13 -12 28 -19 32 -15z"/>
<path d="M578 2353 c6 -2 18 -2 25 0 6 3 1 5 -13 5 -14 0 -19 -2 -12 -5z"/>
<path d="M526 2341 c-4 -5 3 -7 14 -4 23 6 26 13 6 13 -8 0 -17 -4 -20 -9z"/>
<path d="M397 2175 c-4 -8 -1 -17 6 -21 7 -4 9 -4 5 1 -4 4 -3 14 3 22 7 8 8
13 1 13 -5 0 -12 -7 -15 -15z"/>
<path d="M511 2034 c0 -11 3 -14 6 -6 3 7 2 16 -1 19 -3 4 -6 -2 -5 -13z"/>
<path d="M1082 2347 c-39 -25 -49 -36 -41 -44 26 -26 -30 -74 -57 -49 -12 11
-8 30 5 22 10 -7 37 12 29 20 -4 4 -20 -1 -35 -11 -78 -51 -256 -192 -320
-252 -71 -68 -71 -68 -107 -183 -20 -63 -41 -143 -48 -177 -11 -58 -10 -64 8
-78 10 -8 22 -15 25 -15 3 0 23 25 43 55 115 166 349 352 621 494 55 29 113
66 130 82 26 25 28 32 17 49 -6 11 -12 31 -12 45 0 30 -17 39 -100 54 -36 6
-74 13 -85 16 -12 3 -41 -8 -73 -28z m76 -8 c-10 -7 -9 -9 5 -9 9 0 17 5 17
10 0 6 9 10 21 10 16 0 20 -4 15 -17 -6 -16 -5 -16 8 0 13 17 15 17 30 -5 9
-12 16 -17 16 -10 0 15 36 16 46 0 5 -7 3 -8 -5 -3 -10 5 -12 -3 -10 -31 2
-26 -1 -38 -9 -36 -15 3 -16 -14 -1 -24 16 -10 29 17 23 46 -6 24 -5 24 10 -3
14 -26 14 -29 -3 -46 -25 -25 -83 -44 -91 -30 -5 6 -9 3 -12 -9 -4 -12 -18
-23 -37 -27 -17 -4 -31 -11 -31 -16 0 -6 8 -6 19 1 30 15 39 11 11 -5 -14 -8
-32 -14 -41 -15 -22 0 -61 -21 -84 -44 -10 -9 -26 -15 -36 -13 -10 3 -20 -1
-23 -9 -3 -9 1 -11 12 -8 15 5 15 4 -1 -6 -9 -6 -21 -8 -27 -5 -5 3 -15 -3
-22 -15 -7 -11 -19 -20 -26 -20 -7 0 -10 -4 -7 -10 3 -6 -1 -7 -9 -4 -9 3 -16
1 -16 -6 0 -7 -8 -9 -19 -5 -12 3 -21 0 -24 -9 -4 -11 -1 -13 11 -10 11 4 7
-3 -10 -19 -20 -19 -35 -24 -65 -21 -29 2 -34 0 -20 -7 9 -6 22 -7 27 -4 6 3
10 2 10 -2 0 -5 -18 -20 -39 -33 -21 -14 -37 -28 -35 -31 2 -3 -11 -19 -28
-35 -17 -16 -28 -23 -24 -16 4 6 2 12 -3 12 -6 0 -11 -6 -11 -14 0 -17 -50
-79 -58 -71 -3 2 5 14 18 25 13 11 19 20 14 20 -19 0 -35 -18 -43 -46 -4 -16
-13 -29 -21 -29 -7 0 -15 -6 -18 -14 -3 -9 0 -11 8 -6 9 6 9 3 1 -14 -14 -25
-26 -28 -17 -3 6 16 5 16 -8 0 -18 -24 -21 -23 -21 6 0 15 5 22 13 18 9 -3 11
2 7 19 -3 13 3 51 14 84 11 32 17 63 15 67 -3 4 0 8 6 8 7 0 9 7 6 16 -4 10 1
25 10 35 10 11 14 19 10 19 -3 0 0 14 9 30 9 17 22 30 30 30 7 0 17 9 20 20 3
11 12 20 20 20 7 0 16 7 19 16 4 9 9 14 12 11 8 -8 34 18 34 32 0 6 9 11 20
11 11 0 19 6 18 13 -2 7 5 11 15 9 12 -2 21 4 24 17 6 25 10 25 54 7 38 -16
75 -5 84 26 4 10 10 18 14 18 4 0 7 10 7 23 -1 15 5 22 19 23 30 1 55 14 55
31 0 8 4 12 8 9 4 -2 8 3 9 12 3 36 9 46 38 62 31 17 70 16 43 -1z m-178 -110
c0 -14 -17 -10 -23 5 -4 10 -1 13 9 9 7 -3 14 -9 14 -14z m-40 -14 c16 -20 -2
-65 -25 -65 -9 0 -13 4 -10 10 3 5 0 7 -8 4 -27 -10 -30 17 -6 41 29 29 33 29
49 10z"/>
<path d="M615 1930 c-3 -5 -1 -10 4 -10 6 0 11 5 11 10 0 6 -2 10 -4 10 -3 0
-8 -4 -11 -10z"/>
<path d="M577 1767 c-3 -8 1 -14 8 -14 7 0 11 6 8 14 -3 7 -6 13 -8 13 -2 0
-5 -6 -8 -13z"/>
<path d="M2100 2370 c-150 -11 -393 -62 -419 -88 -23 -22 -3 -26 33 -7 30 16
39 17 63 6 23 -10 26 -10 16 0 -20 21 -16 24 32 24 25 0 45 3 45 8 0 5 7 7 15
3 8 -3 15 -1 15 5 0 7 13 9 32 7 17 -3 63 1 102 9 46 9 96 11 140 7 49 -4 67
-3 62 5 -4 6 -1 11 8 11 8 0 18 -5 21 -10 7 -11 75 -10 75 1 0 3 19 3 43 -2
23 -4 60 -8 82 -9 26 0 35 -3 26 -9 -8 -5 -9 -10 -3 -12 7 -3 7 -16 -1 -42 -9
-26 -16 -36 -27 -32 -12 5 -13 4 -2 -6 14 -15 16 -33 3 -24 -13 8 -22 -10 -23
-45 -1 -16 -4 -27 -8 -25 -4 3 -11 -5 -15 -18 -4 -12 -8 -25 -10 -29 -1 -5 -3
-12 -4 -18 0 -5 -7 -7 -15 -4 -11 4 -13 0 -9 -18 4 -19 3 -20 -7 -8 -10 13
-11 13 -6 -3 3 -9 1 -28 -4 -41 -7 -18 -14 -22 -34 -19 -14 3 -23 9 -20 14 3
5 -1 9 -9 9 -8 0 -18 7 -21 16 -4 10 -13 13 -25 9 -13 -4 -24 1 -35 16 -10 15
-26 22 -46 22 -19 0 -26 3 -18 8 17 11 -16 24 -38 15 -12 -5 -15 -2 -10 10 4
12 1 14 -14 9 -22 -7 -28 10 -7 19 6 3 -6 3 -28 1 -30 -4 -35 -3 -20 4 11 5
14 10 7 10 -7 1 -10 6 -7 11 4 6 12 7 18 4 7 -4 9 -4 5 1 -4 4 -3 14 3 21 13
16 1 64 -16 64 -13 0 -15 -24 -3 -36 10 -10 -3 -34 -24 -45 -15 -8 -23 -6 -38
11 -23 27 -15 60 15 60 24 0 41 25 25 35 -6 4 -10 -2 -10 -12 0 -15 -2 -16
-10 -3 -9 13 -12 13 -21 -2 -5 -10 -16 -18 -23 -18 -9 0 -12 -9 -8 -25 3 -18
0 -25 -12 -25 -10 0 -13 6 -9 18 5 14 3 15 -8 5 -18 -18 -39 -16 -39 2 0 8 6
15 14 15 8 0 18 4 21 10 4 7 -3 7 -19 0 -21 -7 -26 -6 -26 5 0 8 -5 15 -11 15
-5 0 -8 -4 -5 -9 4 -5 0 -12 -6 -14 -9 -4 -8 -6 3 -6 9 -1 16 -8 16 -16 0 -19
-2 -19 -21 0 -8 8 -26 16 -41 17 -16 2 -24 7 -20 15 3 10 -3 12 -23 7 -21 -4
-24 -3 -12 6 12 9 9 10 -15 8 -16 -2 -28 -7 -25 -13 2 -5 59 -31 127 -57 67
-25 168 -70 224 -98 56 -28 108 -49 116 -46 7 3 13 0 13 -7 0 -8 37 -34 83
-60 l82 -46 48 95 c50 100 141 314 135 319 -6 7 -234 25 -288 23 -30 0 -98 -4
-150 -8z m197 -16 c-3 -3 -12 -4 -19 -1 -8 3 -5 6 6 6 11 1 17 -2 13 -5z m-27
-334 c0 -5 -2 -10 -4 -10 -3 0 -8 5 -11 10 -3 6 -1 10 4 10 6 0 11 -4 11 -10z"/>
<path d="M340 2350 c-6 -11 -8 -20 -6 -20 3 0 10 9 16 20 6 11 8 20 6 20 -3 0
-10 -9 -16 -20z"/>
<path d="M2551 2332 c-5 -10 -23 -52 -39 -93 -17 -41 -54 -123 -83 -184 -56
-118 -59 -127 -44 -132 15 -5 148 279 180 384 13 43 4 59 -14 25z"/>
<path d="M2093 2333 c9 -2 23 -2 30 0 6 3 -1 5 -18 5 -16 0 -22 -2 -12 -5z"/>
<path d="M2363 2333 c9 -2 25 -2 35 0 9 3 1 5 -18 5 -19 0 -27 -2 -17 -5z"/>
<path d="M365 2299 c-19 -17 -35 -36 -35 -42 0 -6 9 -1 20 11 12 12 23 22 25
22 4 0 -14 -53 -36 -105 -7 -16 -11 -36 -10 -44 2 -10 -4 -12 -23 -7 -25 6
-38 -8 -14 -16 6 -2 17 -20 24 -39 9 -24 13 -28 13 -13 1 25 58 198 77 237 19
36 3 34 -41 -4z"/>
<path d="M1597 2310 c-9 -11 -13 -20 -8 -20 11 0 35 29 29 35 -2 2 -12 -4 -21
-15z"/>
<path d="M2620 2321 c0 -5 -8 -11 -18 -13 -12 -3 -32 -38 -57 -99 -38 -94 -81
-190 -116 -263 -10 -22 -18 -40 -16 -41 1 0 34 -21 72 -45 l70 -45 98 3 c118
4 113 -3 127 171 13 153 4 271 -20 271 -10 0 -20 9 -23 20 -8 31 -117 69 -117
41z m56 -34 c-1 -7 -1 -9 1 -4 8 13 33 7 33 -7 0 -8 10 -22 23 -31 17 -12 22
-25 22 -59 0 -24 3 -39 7 -33 4 7 8 0 8 -16 0 -17 -4 -26 -10 -22 -7 4 -10
-20 -8 -72 2 -43 -1 -87 -5 -98 -7 -16 -7 -17 3 -5 10 12 11 10 6 -10 -4 -14
-9 -37 -12 -52 -6 -26 -10 -28 -58 -29 -28 -1 -61 0 -73 1 -13 1 -23 -3 -23
-9 0 -19 -24 -12 -53 14 -15 14 -27 23 -27 19 0 -4 -3 -5 -6 -2 -3 4 0 16 6
28 8 15 8 20 1 16 -6 -4 -11 -2 -11 4 0 6 -5 8 -12 4 -9 -6 -9 -9 0 -12 14 -4
6 -22 -9 -22 -6 0 -7 5 -4 10 3 6 1 10 -5 10 -8 0 -8 6 0 21 7 11 9 23 6 27
-3 3 -6 0 -6 -6 0 -7 -5 -12 -10 -12 -6 0 -3 15 7 33 9 17 16 35 15 39 -1 4 5
5 13 2 10 -4 15 0 15 14 0 11 10 46 21 79 12 32 23 65 26 73 3 12 6 12 12 1 6
-9 10 -5 15 14 4 14 4 30 1 35 -8 13 62 80 79 74 8 -3 14 -11 12 -17z m91
-219 c-3 -7 -5 -2 -5 12 0 14 2 19 5 13 2 -7 2 -19 0 -25z"/>
<path d="M309 2294 c-23 -25 -23 -26 -2 -13 13 7 25 19 27 26 8 19 2 16 -25
-13z"/>
<path d="M2008 2313 c7 -3 16 -2 19 1 4 3 -2 6 -13 5 -11 0 -14 -3 -6 -6z"/>
<path d="M2791 2304 c0 -11 3 -14 6 -6 3 7 2 16 -1 19 -3 4 -6 -2 -5 -13z"/>
<path d="M1491 2270 c-13 -11 -18 -20 -11 -20 18 0 50 20 50 30 0 15 -12 11
-39 -10z"/>
<path d="M2755 2280 c3 -5 8 -10 11 -10 2 0 4 5 4 10 0 6 -5 10 -11 10 -5 0
-7 -4 -4 -10z"/>
<path d="M2431 2264 c0 -11 3 -14 6 -6 3 7 2 16 -1 19 -3 4 -6 -2 -5 -13z"/>
<path d="M1810 2255 c0 -8 7 -15 16 -15 14 0 14 3 4 15 -7 8 -14 15 -16 15 -2
0 -4 -7 -4 -15z"/>
<path d="M2801 2142 c-1 -121 -16 -286 -27 -304 -6 -9 110 -11 144 -2 18 5 22
12 18 33 -28 144 -27 141 -50 141 -48 0 -72 74 -37 109 21 21 21 22 4 71 -10
28 -21 50 -26 50 -4 0 -6 4 -3 9 3 5 0 11 -8 14 -11 5 -14 -18 -15 -121z m36
23 c0 -8 -4 -12 -9 -9 -4 3 -8 9 -8 15 0 5 4 9 8 9 5 0 9 -7 9 -15z m21 -170
c11 -14 25 -25 32 -25 7 0 10 -7 7 -15 -4 -8 -2 -17 2 -20 14 -8 20 -45 7 -42
-6 1 -10 -6 -10 -15 2 -17 -46 -35 -64 -24 -11 7 -13 166 -2 166 5 0 17 -11
28 -25z m-51 -142 c-3 -10 -5 -4 -5 12 0 17 2 24 5 18 2 -7 2 -21 0 -30z"/>
<path d="M1534 2237 c-19 -16 -25 -29 -21 -41 8 -21 33 -16 29 6 -1 11 5 14
22 13 37 -4 46 -13 46 -45 0 -23 -5 -31 -24 -36 -14 -3 -30 -3 -36 1 -8 5 -10
0 -8 -13 4 -24 -28 -62 -52 -62 -9 0 -22 11 -28 25 -10 21 -9 28 8 45 11 11
29 20 40 20 13 0 17 5 14 14 -14 38 -36 22 -122 -92 -90 -119 -272 -389 -272
-404 0 -13 63 16 68 32 3 9 -1 11 -11 7 -11 -4 -14 -2 -10 9 3 7 9 14 13 14
12 0 40 -29 40 -42 0 -6 15 -8 38 -4 20 3 58 8 84 12 31 4 45 10 42 18 -6 15
-74 17 -74 3 0 -9 -70 -5 -87 6 -15 10 -13 58 3 64 8 3 11 9 8 14 -3 5 2 11
10 14 9 3 23 7 32 10 13 4 14 8 4 20 -9 11 -9 19 3 35 11 16 16 18 20 8 3 -7
6 1 6 18 1 17 8 38 18 45 15 13 15 12 4 -9 -12 -22 -11 -23 7 -13 17 9 21 7
29 -17 14 -41 9 -80 -13 -98 -18 -15 -18 -15 4 -9 15 4 24 1 28 -9 3 -9 11
-16 16 -16 7 0 6 5 -1 14 -9 10 -8 16 3 25 8 7 12 20 9 28 -4 10 -2 14 4 10 8
-5 9 6 6 34 -5 35 -2 44 21 65 14 14 25 33 25 42 -1 16 -2 16 -6 0 -4 -16 -15
-22 -35 -19 -5 0 -8 -4 -8 -9 0 -5 -6 -10 -14 -10 -9 0 -13 -9 -11 -25 1 -14
-1 -28 -5 -30 -11 -7 -19 20 -14 47 4 19 3 20 -4 4 -5 -12 -11 -15 -15 -9 -8
13 16 64 43 88 11 10 20 24 20 32 0 7 5 13 11 13 6 0 9 -7 6 -15 -5 -10 4 -16
29 -21 19 -3 37 -11 41 -17 3 -5 1 -7 -4 -4 -17 11 -23 -32 -9 -65 12 -28 14
-28 19 -9 3 12 9 21 14 20 21 -4 34 2 27 12 -3 6 0 15 7 20 11 7 10 9 -3 9
-10 0 -18 -7 -18 -17 0 -25 -12 -8 -15 22 -2 14 1 23 5 20 5 -3 10 5 12 17 2
14 13 25 28 29 l25 7 -25 1 c-22 1 -23 3 -7 12 10 6 25 8 33 5 8 -3 12 -2 9 3
-3 5 0 13 6 16 5 4 8 14 5 22 -3 8 -1 11 5 8 6 -4 18 -1 27 7 22 17 60 38 69
38 5 0 1 -5 -7 -11 -12 -8 -9 -9 13 -5 15 4 27 2 27 -3 0 -5 7 -11 16 -13 15
-3 22 -24 26 -75 1 -7 7 -13 14 -13 7 0 16 -5 20 -11 4 -8 -1 -9 -17 -4 -21 7
-21 6 -8 -7 19 -20 69 -20 76 -1 5 12 7 12 14 1 7 -10 11 -7 15 10 4 12 14 22
24 22 10 0 27 3 37 7 16 6 16 5 4 -11 -12 -15 -12 -19 2 -32 9 -8 12 -9 7 -2
-18 22 -10 27 18 12 15 -7 36 -14 47 -14 11 0 29 -8 40 -17 16 -13 17 -14 3
-9 -10 3 -26 9 -35 12 -15 5 -14 4 2 -9 20 -16 20 -16 -1 -17 -12 0 -26 10
-33 23 l-11 22 6 -24 c3 -13 2 -21 -3 -18 -11 7 -40 -10 -31 -18 3 -4 15 -2
26 4 15 8 28 6 56 -8 39 -20 47 -17 19 6 -15 12 -16 14 -2 10 9 -3 21 -1 27 5
8 8 19 6 39 -8 15 -10 30 -19 33 -19 3 -1 23 -11 45 -23 24 -14 31 -21 18 -18
-13 2 -23 1 -23 -4 0 -12 39 -20 46 -9 3 5 12 3 20 -5 17 -17 19 -30 2 -20 -8
5 -9 0 -6 -14 4 -13 2 -20 -4 -16 -5 3 -7 16 -4 28 5 21 5 21 -10 1 -9 -12
-11 -21 -4 -23 34 -12 -14 -68 -65 -76 -25 -4 -35 -3 -26 2 9 7 -1 11 -33 16
-31 5 -49 14 -57 27 -11 21 -4 59 11 59 13 0 -4 53 -19 58 -10 3 -11 0 -1 -18
9 -18 9 -28 0 -45 -9 -17 -10 -31 -2 -54 9 -25 8 -31 -6 -34 -14 -4 -14 -5 2
-6 12 -1 16 -6 13 -16 -4 -8 -2 -17 3 -20 6 -4 10 -2 10 3 0 5 19 9 43 9 125
0 123 0 149 46 13 23 32 54 41 68 l18 26 -203 101 c-196 97 -290 135 -243 99
20 -16 20 -16 0 -31 -11 -8 -26 -16 -33 -16 -8 0 -10 -5 -6 -12 4 -7 -6 -1
-21 13 -23 23 -25 29 -15 49 8 15 18 20 31 17 32 -9 10 11 -34 31 -23 10 -62
24 -87 31 -25 7 -55 17 -67 21 -15 6 -25 4 -33 -6 -10 -11 -9 -14 6 -15 18 0
18 -1 -1 -9 -18 -8 -18 -9 -2 -9 10 -1 15 -5 12 -11 -10 -16 -35 -12 -35 6 0
8 -7 23 -16 32 -15 15 -15 16 2 22 17 6 17 7 0 13 -29 11 -44 8 -72 -16z m-4
-241 c0 -11 -19 -15 -25 -6 -3 5 1 10 9 10 9 0 16 -2 16 -4z m-125 -146 c-3
-4 -1 -10 4 -12 5 -1 3 -8 -3 -14 -10 -9 -13 -6 -14 17 0 16 4 27 9 23 5 -3 7
-9 4 -14z m715 -34 c0 -3 -4 -8 -10 -11 -5 -3 -10 -1 -10 4 0 6 5 11 10 11 6
0 10 -2 10 -4z"/>
<path d="M279 2205 c-11 -25 -19 -50 -17 -55 2 -6 13 15 25 45 26 66 20 73 -8
10z"/>
<path d="M1389 2223 c-13 -15 -12 -15 6 -6 11 6 27 13 35 16 10 4 8 6 -6 6
-12 1 -28 -6 -35 -16z"/>
<path d="M1445 2217 c-27 -11 -52 -24 -55 -27 -3 -4 -16 -13 -28 -19 -13 -7
-22 -15 -19 -18 3 -2 14 1 26 9 17 10 23 10 33 -1 10 -11 10 -12 1 -7 -8 4
-13 1 -13 -7 0 -18 -31 -31 -40 -17 -10 16 -32 3 -60 -36 -14 -19 -39 -54 -56
-77 -17 -23 -42 -61 -55 -84 -13 -24 -46 -77 -73 -119 -48 -75 -49 -76 -35
-116 15 -47 4 -57 102 92 108 165 232 335 289 397 32 36 46 55 36 52 -2 0 -25
-10 -53 -22z m-98 -126 c0 -11 -6 -17 -14 -14 -16 6 -17 20 0 26 6 3 13 6 14
6 1 1 1 -8 0 -18z m-31 -56 c-9 -14 -21 -23 -26 -20 -5 3 -11 1 -15 -5 -3 -5
0 -10 7 -10 9 -1 7 -5 -4 -14 -10 -7 -18 -19 -18 -25 0 -7 -5 -9 -11 -5 -7 4
-9 -2 -7 -17 2 -16 -2 -24 -11 -24 -8 0 -26 -23 -40 -52 -28 -55 -51 -85 -51
-66 0 6 6 13 13 16 10 4 10 7 0 18 -11 11 -13 11 -13 -1 0 -7 -3 -11 -6 -8 -8
9 19 48 34 48 7 0 22 19 33 43 11 23 17 34 14 24 -2 -10 -1 -16 4 -12 5 3 12
19 16 35 4 17 11 30 17 30 6 0 9 3 5 6 -3 3 3 16 14 27 11 12 22 32 26 45 5
21 7 22 21 8 14 -13 13 -17 -2 -41z m-199 -254 c-3 -14 -1 -18 9 -14 8 3 14 0
14 -5 0 -6 -13 -10 -29 -10 -25 1 -28 3 -15 15 8 8 14 19 14 24 0 5 3 9 6 9 4
0 4 -9 1 -19z m-7 -45 c0 -2 -7 -9 -15 -16 -13 -11 -14 -10 -9 4 5 14 24 23
24 12z"/>
<path d="M1303 2053 c-3 -10 -8 -22 -10 -28 -3 -5 3 -1 11 9 16 20 21 36 11
36 -3 0 -8 -8 -12 -17z"/>
<path d="M2860 2226 c0 -7 7 -30 15 -50 12 -28 21 -36 40 -36 50 0 70 -84 27
-118 -14 -10 -14 -20 -4 -70 7 -32 12 -69 12 -81 l0 -24 18 24 c11 13 38 54
61 91 48 76 47 77 -16 156 -31 38 -133 122 -148 122 -3 0 -5 -6 -5 -14z m45
-36 c10 -11 16 -20 13 -20 -3 0 -13 9 -23 20 -10 11 -16 20 -13 20 3 0 13 -9
23 -20z m129 -150 c4 1 10 -1 14 -4 3 -3 0 -6 -6 -6 -7 0 -12 -7 -12 -15 0
-27 -34 -86 -46 -81 -7 3 -15 0 -18 -7 -2 -7 -3 4 0 23 3 28 2 31 -5 15 -8
-17 -10 -15 -8 13 1 17 4 32 8 32 4 0 9 10 12 22 5 18 8 19 21 8 13 -10 16
-10 16 2 0 8 -3 18 -7 22 -4 3 -8 17 -9 29 -2 14 4 9 15 -16 10 -21 21 -38 25
-37z"/>
<path d="M3003 1995 c0 -8 4 -12 9 -9 4 3 8 9 8 15 0 5 -4 9 -8 9 -5 0 -9 -7
-9 -15z"/>
<path d="M3155 2181 c-14 -44 -15 -55 -1 -103 8 -29 22 -95 32 -145 14 -78 20
-93 35 -93 23 0 25 18 3 27 -13 5 -13 7 -2 14 10 7 8 9 -6 9 -15 0 -17 6 -14
40 2 22 0 40 -5 40 -5 0 -7 6 -4 13 2 6 -4 34 -14 62 -13 37 -14 52 -6 57 9 6
8 8 -2 8 -14 0 -13 9 4 93 9 43 -2 31 -20 -22z"/>
<path d="M303 2185 c-6 -19 -8 -35 -3 -35 8 0 23 60 17 67 -2 1 -8 -13 -14
-32z"/>
<path d="M1689 2151 c6 -4 16 -30 20 -57 5 -27 9 -41 10 -32 1 12 7 16 19 12
12 -4 13 -3 4 3 -7 5 -10 17 -7 25 4 9 -1 18 -12 22 -17 7 -17 8 -1 20 16 12
14 13 -14 14 -20 0 -27 -2 -19 -7z"/>
<path d="M1225 2123 c-95 -47 -220 -127 -332 -210 -111 -82 -266 -237 -305
-304 -11 -19 -13 -25 -4 -14 58 73 98 84 141 41 13 -13 32 -23 42 -21 10 2 60
9 110 16 91 12 93 12 88 36 -4 24 31 73 52 73 4 0 22 23 38 51 17 28 76 118
133 200 56 82 102 151 102 154 0 8 -13 4 -65 -22z m-5 -41 c0 -15 -11 -21 -27
-15 -12 5 -12 7 -1 14 17 11 28 11 28 1z m-40 -37 c0 -8 -5 -17 -11 -20 -6 -4
-8 -13 -5 -21 3 -8 0 -13 -6 -11 -6 1 -24 -24 -40 -55 -16 -32 -34 -58 -39
-58 -5 0 -9 -7 -9 -15 0 -9 -12 -20 -26 -25 -18 -7 -24 -15 -20 -27 8 -19 -2
-53 -15 -53 -5 0 -14 10 -19 23 -9 21 -9 21 -9 1 -1 -12 -11 -34 -22 -48 -17
-21 -24 -25 -30 -14 -7 10 -9 9 -9 -4 0 -9 5 -20 10 -23 20 -12 -2 -26 -35
-23 -19 1 -37 -1 -41 -5 -4 -4 3 -7 16 -7 38 0 19 -7 -35 -13 -34 -4 -42 -3
-25 3 l25 8 -27 1 c-16 1 -28 -3 -28 -9 0 -20 -90 15 -106 41 -4 8 -3 9 5 5
13 -8 44 18 33 28 -3 4 1 4 11 0 23 -8 21 -21 -4 -29 -12 -4 -17 -10 -13 -14
13 -10 64 -31 64 -26 0 2 -12 11 -27 19 -24 13 -19 22 9 17 4 0 2 10 -4 24 -6
14 -15 25 -20 25 -4 0 0 8 10 18 11 13 22 16 34 10 9 -4 24 -5 34 -1 12 4 15
3 10 -5 -4 -7 -3 -12 2 -12 6 0 13 7 16 16 4 10 2 13 -6 8 -8 -5 -9 -2 -5 9 3
9 1 19 -6 23 -7 4 -9 4 -5 -1 8 -9 -20 -40 -29 -32 -11 11 28 58 58 71 16 7
26 15 22 19 -3 4 -2 7 4 7 6 0 13 -7 17 -15 3 -8 10 -15 16 -15 6 0 4 7 -4 16
-18 18 -21 34 -6 34 6 0 21 11 33 24 13 14 48 38 80 54 31 16 54 31 52 34 -6
5 16 9 63 10 31 1 32 2 12 13 l-22 12 24 15 c25 17 48 13 48 -7z"/>
<path d="M1140 2040 c0 -5 5 -10 10 -10 6 0 10 5 10 10 0 6 -4 10 -10 10 -5 0
-10 -4 -10 -10z"/>
<path d="M1070 1991 c0 -6 4 -13 10 -16 6 -3 7 1 4 9 -7 18 -14 21 -14 7z"/>
<path d="M1040 1970 c0 -5 5 -10 10 -10 6 0 10 5 10 10 0 6 -4 10 -10 10 -5 0
-10 -4 -10 -10z"/>
<path d="M1000 1950 c0 -5 4 -10 9 -10 6 0 13 5 16 10 3 6 -1 10 -9 10 -9 0
-16 -4 -16 -10z"/>
<path d="M962 1936 c-23 -12 -23 -13 10 -13 18 0 27 2 20 5 -6 2 -10 8 -6 13
7 12 4 11 -24 -5z"/>
<path d="M1083 1937 c3 -9 2 -19 -3 -22 -6 -4 -10 -11 -10 -17 0 -7 6 -6 15 2
18 15 19 36 3 46 -8 5 -9 2 -5 -9z"/>
<path d="M1023 1875 c0 -8 4 -12 9 -9 5 3 6 10 3 15 -9 13 -12 11 -12 -6z"/>
<path d="M930 1832 c0 -5 7 -9 15 -9 8 0 12 4 9 9 -3 4 -9 8 -15 8 -5 0 -9 -4
-9 -8z"/>
<path d="M875 1791 c-3 -5 -2 -12 3 -15 5 -3 9 1 9 9 0 17 -3 19 -12 6z"/>
<path d="M1000 1790 c0 -5 5 -10 11 -10 5 0 7 5 4 10 -3 6 -8 10 -11 10 -2 0
-4 -4 -4 -10z"/>
<path d="M745 1750 c-3 -6 1 -7 9 -4 18 7 21 14 7 14 -6 0 -13 -4 -16 -10z"/>
<path d="M834 1738 c-4 -7 -4 -10 1 -6 4 4 14 3 21 -3 7 -6 18 -8 25 -4 8 6 7
10 -2 16 -20 12 -37 11 -45 -3z"/>
<path d="M760 1726 c0 -2 9 -6 20 -9 11 -3 18 -1 14 4 -5 9 -34 13 -34 5z"/>
<path d="M869 1696 c6 -7 23 -13 36 -13 23 0 24 1 8 13 -10 7 -26 14 -37 14
-14 0 -16 -3 -7 -14z"/>
<path d="M793 1673 c9 -2 23 -2 30 0 6 3 -1 5 -18 5 -16 0 -22 -2 -12 -5z"/>
<path d="M1641 2127 c-6 -6 -11 -16 -11 -21 0 -6 5 -4 10 6 6 10 18 14 30 11
11 -3 20 -3 20 0 0 11 -39 14 -49 4z"/>
<path d="M1632 2085 c-27 -14 -29 -24 -10 -36 7 -5 8 -9 2 -9 -6 0 -10 -12 -8
-26 2 -19 -1 -24 -12 -20 -9 4 -12 2 -8 -5 4 -6 1 -15 -6 -19 -8 -5 -7 -9 4
-13 10 -4 16 -1 16 9 0 11 5 14 17 10 10 -4 14 -4 11 0 -4 3 2 15 12 27 11 11
17 23 14 26 -3 3 -12 -3 -20 -13 -8 -11 -14 -14 -14 -8 0 7 9 21 21 33 11 11
18 24 14 27 -3 4 -10 0 -15 -8 -5 -8 -13 -11 -17 -6 -4 4 1 14 11 22 26 18 17
24 -12 9z"/>
<path d="M2916 2085 c4 -8 11 -15 16 -15 6 0 5 6 -2 15 -7 8 -14 15 -16 15 -2
0 -1 -7 2 -15z"/>
<path d="M3117 2087 c-3 -8 4 -54 15 -103 11 -49 22 -99 24 -111 6 -33 24 -28
19 5 -16 104 -39 213 -45 217 -4 3 -10 -1 -13 -8z"/>
<path d="M1670 2086 c0 -2 7 -7 16 -10 8 -3 12 -2 9 4 -6 10 -25 14 -25 6z"/>
<path d="M265 2070 c3 -5 8 -10 11 -10 2 0 4 5 4 10 0 6 -5 10 -11 10 -5 0 -7
-4 -4 -10z"/>
<path d="M1946 2071 c-10 -15 8 -46 27 -48 17 -1 17 1 -2 21 -12 12 -18 26
-14 29 3 4 4 7 0 7 -3 0 -8 -4 -11 -9z"/>
<path d="M2885 2060 c3 -5 8 -10 11 -10 2 0 4 5 4 10 0 6 -5 10 -11 10 -5 0
-7 -4 -4 -10z"/>
<path d="M1686 2045 c-9 -26 -7 -32 5 -12 6 10 9 21 6 23 -2 3 -7 -2 -11 -11z"/>
<path d="M1906 2043 c-4 -5 -12 -8 -17 -8 -12 0 -13 -6 -5 -33 4 -12 12 -20
17 -16 6 3 16 -2 23 -12 12 -16 13 -15 18 8 4 22 2 24 -20 20 -18 -4 -23 -1
-20 9 3 8 12 13 21 11 11 -2 15 2 11 13 -7 16 -16 19 -28 8z"/>
<path d="M3097 2043 c-6 -10 9 -90 34 -178 6 -21 6 -14 3 25 -8 78 -29 166
-37 153z"/>
<path d="M310 2030 c0 -8 -11 -23 -25 -35 l-26 -20 18 -44 17 -44 12 74 c7 40
11 75 8 78 -2 2 -4 -2 -4 -9z"/>
<path d="M596 2013 c-6 -14 -5 -15 5 -6 7 7 10 15 7 18 -3 3 -9 -2 -12 -12z"/>
<path d="M2137 1989 c6 -23 9 -24 16 -5 3 8 0 17 -7 19 -10 4 -12 -1 -9 -14z"/>
<path d="M3070 2001 c0 -6 -22 -46 -49 -87 l-49 -74 53 0 c33 0 55 5 58 13 4
10 6 10 6 0 1 -7 6 -13 11 -13 13 0 13 50 -1 108 -12 46 -29 79 -29 53z m12
-92 c-3 -28 -7 -37 -13 -28 -7 12 -9 11 -9 -1 0 -9 -10 -16 -23 -16 l-24 -2
19 36 c16 32 34 51 48 52 3 0 4 -19 2 -41z"/>
<path d="M3050 1920 c0 -5 5 -10 11 -10 5 0 7 5 4 10 -3 6 -8 10 -11 10 -2 0
-4 -4 -4 -10z"/>
<path d="M1390 1989 c0 -5 5 -7 10 -4 6 3 10 8 10 11 0 2 -4 4 -10 4 -5 0 -10
-5 -10 -11z"/>
<path d="M2008 1983 c-31 -5 -39 -23 -10 -23 30 0 62 12 56 21 -3 5 -8 8 -12
8 -4 -1 -19 -4 -34 -6z"/>
<path d="M1480 1960 c0 -5 5 -10 11 -10 5 0 7 5 4 10 -3 6 -8 10 -11 10 -2 0
-4 -4 -4 -10z"/>
<path d="M237 1954 c-12 -13 -8 -47 9 -65 11 -12 16 -43 19 -108 1 -50 0 -89
-4 -87 -3 2 -5 -16 -4 -40 1 -24 -2 -44 -8 -44 -5 0 -8 -3 -7 -7 1 -5 -4 -21
-10 -36 -22 -52 -12 -52 17 -1 25 46 29 65 34 174 5 77 3 127 -3 135 -6 7 -16
29 -23 49 -7 20 -16 34 -20 30z"/>
<path d="M2030 1950 c0 -5 5 -10 10 -10 6 0 10 -10 10 -22 0 -18 2 -20 9 -9 6
9 5 21 -2 33 -13 20 -27 24 -27 8z"/>
<path d="M1983 1943 c9 -2 23 -2 30 0 6 3 -1 5 -18 5 -16 0 -22 -2 -12 -5z"/>
<path d="M2140 1938 c0 -9 -6 -19 -12 -21 -10 -4 -10 -6 0 -6 14 -1 28 26 18
36 -3 4 -6 -1 -6 -9z"/>
<path d="M466 1836 c-38 -45 -71 -86 -73 -92 -2 -5 17 -32 41 -59 l43 -50 7
45 c4 25 18 87 32 139 13 52 23 95 22 96 -2 2 -34 -34 -72 -79z m14 -46 c-7
-4 -9 -13 -5 -20 5 -8 4 -11 -3 -6 -7 4 -9 -6 -7 -31 4 -31 3 -34 -4 -13 l-9
25 -2 -25 c-2 -21 -3 -22 -7 -5 -3 11 -9 25 -15 30 -6 6 -7 3 -3 -10 5 -16 5
-17 -3 -5 -12 16 4 44 19 34 5 -3 9 0 9 7 0 19 34 53 38 39 3 -7 -1 -16 -8
-20z"/>
<path d="M2327 1855 c-30 -62 -31 -65 -17 -65 9 0 70 97 70 113 0 4 -6 7 -13
7 -7 0 -25 -25 -40 -55z"/>
<path d="M2185 1890 c-4 -6 -4 -14 -1 -17 3 -4 6 -1 6 7 0 10 3 10 17 -1 14
-12 16 -12 12 0 -7 19 -25 25 -34 11z"/>
<path d="M2100 1870 c0 -26 17 -34 23 -11 3 12 -1 22 -9 25 -9 3 -14 -2 -14
-14z"/>
<path d="M2397 1883 c-3 -5 -14 -25 -26 -45 l-21 -38 43 1 c23 0 60 3 82 7
l40 7 -45 31 c-66 44 -68 45 -73 37z m37 -31 c2 -4 -5 -9 -17 -9 -17 -2 -19 0
-7 7 18 12 18 12 24 2z m-17 -28 c-3 -3 -12 -4 -19 -1 -8 3 -5 6 6 6 11 1 17
-2 13 -5z"/>
<path d="M1295 1860 c3 -5 8 -10 11 -10 2 0 4 5 4 10 0 6 -5 10 -11 10 -5 0
-7 -4 -4 -10z"/>
<path d="M2150 1850 c0 -13 44 -30 73 -29 14 1 9 5 -15 11 -21 6 -38 14 -38
19 0 5 -4 9 -10 9 -5 0 -10 -5 -10 -10z"/>
<path d="M2215 1850 c-3 -5 1 -10 9 -10 9 0 16 5 16 10 0 6 -4 10 -9 10 -6 0
-13 -4 -16 -10z"/>
<path d="M3258 1843 c6 -2 18 -2 25 0 6 3 1 5 -13 5 -14 0 -19 -2 -12 -5z"/>
<path d="M3025 1822 l-70 -3 3 -39 c4 -43 7 -45 75 -34 31 6 40 13 53 42 8 19
13 36 12 36 -2 1 -35 0 -73 -2z m20 -31 c-3 -5 3 -11 12 -13 10 -3 2 -6 -18
-9 -28 -4 -40 0 -48 13 -10 16 -7 18 25 18 19 0 33 -4 29 -9z"/>
<path d="M3214 1814 c3 -9 6 -18 6 -20 0 -10 38 -2 56 12 18 15 18 15 -5 8
-16 -4 -21 -3 -17 5 5 7 -3 11 -19 11 -21 0 -26 -4 -21 -16z"/>
<path d="M300 1738 c0 -45 2 -79 4 -77 3 3 16 21 30 42 l26 38 -26 39 c-15 22
-28 40 -30 40 -2 0 -4 -37 -4 -82z m30 -8 c0 -5 -5 -10 -11 -10 -5 0 -7 5 -4
10 3 6 8 10 11 10 2 0 4 -4 4 -10z"/>
<path d="M2808 1813 c-34 -4 -37 -7 -48 -54 -7 -28 -10 -52 -7 -55 2 -3 23 -2
46 2 33 5 49 16 81 54 22 26 40 51 40 54 0 6 -46 6 -112 -1z m62 -31 c0 -2
-10 -16 -21 -30 l-21 -27 6 25 c6 25 6 25 -5 3 -7 -13 -16 -23 -21 -23 -5 0
-6 5 -3 10 3 6 2 10 -4 10 -5 0 -12 -8 -14 -17 -4 -15 -5 -15 -6 2 0 11 4 27
9 35 7 11 10 12 10 2 0 -11 2 -11 14 0 12 12 56 20 56 10z"/>
<path d="M3162 1795 c0 -16 2 -22 5 -12 2 9 2 23 0 30 -3 6 -5 -1 -5 -18z"/>
<path d="M2657 1800 c-32 -4 -59 -9 -61 -11 -2 -2 25 -25 60 -51 71 -54 77
-52 90 31 7 46 14 44 -89 31z m58 -66 c-5 -7 -14 -10 -19 -7 -4 3 -2 9 5 14
12 7 11 9 -1 10 -8 1 -21 1 -29 0 -7 -2 -11 3 -9 10 2 7 12 13 22 15 10 1 21
5 24 9 12 11 19 -39 7 -51z"/>
<path d="M2900 1757 l-35 -40 34 6 c18 4 37 7 42 7 5 0 9 16 9 35 0 19 -3 35
-7 34 -5 0 -24 -19 -43 -42z"/>
<path d="M1294 1779 c-3 -6 -17 -9 -31 -6 -31 6 -20 -5 20 -20 18 -6 24 -12
15 -12 -9 -1 -19 -5 -23 -10 -3 -6 4 -9 15 -8 11 1 20 5 20 9 0 4 21 9 48 10
38 1 40 2 12 5 -19 2 -46 6 -59 9 -22 5 -23 6 -5 19 11 8 14 15 7 15 -6 0 -15
-5 -19 -11z"/>
<path d="M2396 1780 c-43 -4 -62 -11 -70 -24 -6 -10 -24 -38 -40 -63 -16 -24
-26 -46 -23 -49 6 -7 406 42 414 49 2 3 -25 26 -61 52 -71 50 -65 49 -220 35z
m169 -28 c34 -28 36 -47 6 -49 -14 -1 -72 -8 -128 -16 -70 -9 -106 -10 -113
-3 -7 7 -10 6 -10 -3 0 -7 -5 -9 -10 -6 -6 4 -4 12 5 21 8 9 15 20 15 26 0 6
3 8 7 5 3 -4 11 1 18 10 8 11 29 16 68 17 32 1 57 4 57 9 0 14 65 6 85 -11z
m60 -40 c-3 -3 -11 0 -18 7 -9 10 -8 11 6 5 10 -3 15 -9 12 -12z"/>
<path d="M3120 1770 c0 -5 5 -10 10 -10 6 0 10 5 10 10 0 6 -4 10 -10 10 -5 0
-10 -4 -10 -10z"/>
<path d="M2175 1759 c-33 -5 -68 -9 -78 -9 -14 -1 -16 -6 -11 -23 4 -12 6 -39
5 -59 -1 -32 2 -38 23 -44 37 -9 62 10 101 77 37 63 40 70 28 68 -5 -1 -35 -6
-68 -10z m2 -33 c-3 -7 0 -19 6 -25 8 -8 5 -11 -13 -11 -20 0 -22 -2 -10 -10
12 -8 12 -10 -2 -15 -24 -10 -51 -2 -55 15 -4 13 -3 13 6 0 9 -13 11 -13 11 1
0 9 10 20 23 24 12 3 17 9 10 11 -7 3 -22 0 -34 -6 -17 -9 -20 -9 -17 1 2 7
15 14 28 16 13 2 26 6 29 8 10 11 23 4 18 -9z m-44 -83 c-7 -2 -19 -2 -25 0
-7 3 -2 5 12 5 14 0 19 -2 13 -5z"/>
<path d="M2238 1700 c-35 -53 -42 -70 -29 -70 16 0 22 7 72 93 46 76 9 57 -43
-23z"/>
<path d="M3223 1750 c-3 -11 -8 -20 -12 -20 -4 0 -8 -21 -9 -47 -1 -27 -4 -86
-6 -133 -4 -65 -3 -76 4 -45 5 22 9 57 9 78 1 20 4 37 9 37 4 0 6 23 5 50 -2
41 1 50 14 50 13 0 14 3 5 12 -9 9 -7 14 6 24 16 13 16 13 -1 14 -11 0 -21 -9
-24 -20z"/>
<path d="M2057 1730 c3 -11 9 -22 13 -25 5 -3 6 4 3 15 -3 11 -9 22 -13 25 -5
3 -6 -4 -3 -15z"/>
<path d="M3004 1723 l-32 -4 -4 -122 c-3 -67 -4 -123 -3 -125 1 -1 18 24 38
56 39 63 70 129 81 175 7 29 3 30 -80 20z m53 -28 c0 -8 -4 -12 -9 -9 -5 3 -6
-7 -3 -23 4 -16 3 -23 -2 -16 -6 8 -12 4 -20 -13 -6 -13 -7 -22 -2 -18 12 7
11 0 -3 -31 -17 -38 -24 -30 -25 28 -1 28 -2 59 -4 67 -3 10 7 16 31 21 19 3
35 7 36 8 0 0 1 -6 1 -14z"/>
<path d="M336 1669 c-43 -64 -51 -129 -16 -129 22 0 25 7 10 30 -8 13 -10 12
-10 -4 0 -11 -3 -17 -6 -13 -9 8 6 48 16 42 4 -3 12 1 18 8 12 16 12 48 -1 40
-5 -3 -8 0 -5 8 8 23 48 22 73 -1 31 -29 23 -60 -17 -60 -23 0 -29 -4 -24 -15
3 -10 -1 -15 -11 -15 -9 0 -14 -3 -11 -6 4 -3 31 -3 62 1 52 7 56 9 56 34 -1
17 -18 45 -49 80 l-49 54 -36 -54z m14 -48 c0 -4 -6 -8 -14 -8 -8 0 -12 6 -9
14 5 13 23 9 23 -6z"/>
<path d="M2884 1703 c-19 -2 -44 -18 -64 -38 l-32 -33 78 -76 c44 -42 80 -76
82 -76 1 0 2 52 2 115 0 126 6 117 -66 108z m43 -94 c0 -69 -2 -77 -16 -69
-20 10 -57 50 -47 50 4 0 -6 11 -21 25 -22 19 -24 24 -10 25 9 0 16 6 15 13
-2 7 9 13 25 15 15 2 27 7 27 11 0 4 6 8 13 8 10 0 14 -20 14 -78z"/>
<path d="M3086 1658 c-10 -29 -40 -87 -67 -131 l-49 -78 39 -52 c21 -29 44
-62 50 -74 6 -13 15 -23 20 -23 12 0 52 184 63 294 7 76 7 101 -3 110 -9 8
-11 7 -6 -6 3 -10 2 -20 -2 -23 -5 -2 -11 -16 -13 -30 -3 -13 -2 -22 2 -20 14
9 -2 -140 -18 -165 -9 -14 -15 -37 -13 -52 1 -14 -2 -29 -8 -32 -6 -4 -8 -13
-4 -21 3 -8 0 -15 -6 -15 -6 0 -11 5 -11 10 0 6 0 12 0 15 0 3 -8 14 -17 24
-34 37 -43 50 -43 61 0 19 32 60 42 54 5 -3 8 0 7 7 -3 21 37 100 46 91 4 -4
4 3 1 16 -5 13 -3 22 3 22 6 0 11 9 11 20 0 11 4 20 10 20 5 0 7 7 4 15 -10
25 -19 17 -38 -37z"/>
<path d="M3167 1703 c-4 -3 -7 -32 -7 -63 0 -69 -24 -211 -49 -298 -18 -57
-18 -102 -2 -102 17 0 68 268 74 398 4 67 0 82 -16 65z"/>
<path d="M2763 1682 c-19 -6 -20 -9 -8 -26 13 -17 15 -17 42 8 24 23 25 26 8
25 -11 -1 -30 -4 -42 -7z"/>
<path d="M1320 1666 c-50 -7 -74 -15 -72 -24 1 -7 -9 -12 -25 -11 -25 0 -26 1
-8 9 16 7 11 9 -22 9 -65 1 -86 -12 -126 -79 l-36 -62 87 7 c48 4 132 12 187
19 l100 12 -3 29 c-1 17 -3 47 -5 68 -1 20 -2 36 -2 36 0 -1 -34 -6 -75 -13z
m10 -26 c0 -5 5 -10 11 -10 5 0 7 5 4 10 -3 6 3 10 14 10 12 0 21 -7 21 -15 0
-11 -12 -15 -47 -16 -27 0 -70 -4 -98 -8 -27 -5 -52 -5 -55 -1 -3 4 -12 9 -20
12 -8 3 21 4 64 4 55 -1 81 3 83 12 5 14 23 16 23 2z m-165 -36 c27 -13 43
-14 91 -5 32 6 73 11 91 11 33 0 44 -13 21 -24 -7 -4 -4 -5 8 -2 12 2 21 -2
21 -9 0 -8 -14 -11 -41 -9 -22 2 -45 0 -50 -5 -6 -4 -36 -9 -66 -10 -30 -2
-76 -4 -102 -6 -45 -4 -61 6 -37 21 6 3 9 14 6 24 -3 14 -1 17 11 13 10 -4 13
-2 8 5 -10 16 0 15 39 -4z"/>
<path d="M1275 1590 l-40 -7 35 -1 c19 0 44 3 55 8 24 10 7 10 -50 0z"/>
<path d="M1150 1561 c0 -4 11 -6 25 -3 14 2 25 6 25 8 0 2 -11 4 -25 4 -14 0
-25 -4 -25 -9z"/>
<path d="M2448 1636 l-207 -31 -90 -135 c-57 -85 -86 -139 -80 -145 12 -12 11
-49 -3 -80 -11 -25 -21 -30 -81 -39 -25 -4 -67 -43 -91 -85 -6 -9 -24 -32 -42
-51 -18 -19 -42 -48 -54 -63 l-22 -28 45 22 c26 13 44 26 41 31 -3 4 2 5 10 2
21 -8 246 112 421 225 114 73 282 200 366 277 21 19 59 101 59 128 0 10 -60 4
-272 -28z m236 -13 c0 -13 -22 -46 -49 -76 -27 -28 -46 -47 -42 -40 5 7 0 9
-15 5 -12 -3 -17 -7 -11 -9 17 -6 -12 -36 -59 -60 -21 -11 -34 -24 -30 -28 4
-4 -4 -5 -18 -1 -14 3 -19 3 -12 0 19 -9 14 -27 -5 -20 -10 4 -15 4 -11 1 10
-11 -26 -42 -41 -37 -8 3 -12 1 -8 -5 8 -12 -60 -49 -82 -44 -8 1 -12 -3 -8
-12 8 -21 -4 -29 -21 -14 -13 9 -14 9 -8 0 4 -8 1 -13 -9 -13 -10 0 -13 -5 -9
-11 5 -9 -2 -10 -22 -6 -16 3 -23 4 -16 1 17 -8 15 -21 -4 -28 -10 -4 -13 -2
-9 7 4 6 0 4 -8 -6 -9 -10 -24 -20 -34 -22 -10 -1 -17 -8 -15 -15 2 -8 -5 -9
-19 -5 -15 5 -19 4 -14 -5 5 -9 2 -10 -14 -5 -12 4 -21 2 -21 -4 0 -6 6 -11
13 -11 6 0 1 -6 -13 -13 -27 -15 -44 -12 -20 3 11 7 11 10 2 10 -7 0 -15 -7
-18 -15 -4 -8 -11 -12 -17 -8 -5 3 -7 1 -4 -4 9 -15 -13 -31 -74 -53 -56 -21
-69 -21 -44 0 8 7 15 18 15 24 0 6 8 20 17 31 13 17 15 17 9 2 -3 -11 -2 -16
4 -12 6 3 10 13 10 21 0 8 5 14 12 14 6 0 20 7 30 17 10 9 18 11 18 5 0 -5 6
-9 13 -7 65 14 78 19 83 27 3 4 0 7 -7 6 -7 -2 -14 6 -16 17 -3 16 -2 17 6 5
9 -12 11 -11 11 7 0 12 8 27 18 32 10 6 12 11 4 11 -7 0 -10 5 -7 10 3 6 2 10
-4 10 -5 0 -12 -8 -14 -17 -3 -10 -3 2 0 27 4 25 9 47 12 50 10 8 29 42 51 89
11 24 23 41 27 38 3 -4 0 -13 -7 -22 -10 -12 -10 -15 4 -15 9 0 15 3 15 8 -1
4 -1 22 0 40 1 30 4 33 24 27 17 -5 18 -4 7 4 -24 17 21 57 62 56 18 -1 38 1
43 4 12 7 31 11 70 15 17 1 48 6 70 9 29 5 33 4 15 -2 -30 -11 -14 -13 30 -5
23 5 28 9 18 16 -8 5 6 6 37 3 39 -5 47 -4 35 5 -13 10 -11 11 6 7 12 -2 27
-1 33 3 22 13 37 7 35 -17z"/>
<path d="M2475 1551 c-3 -5 -2 -12 3 -15 5 -3 9 1 9 9 0 17 -3 19 -12 6z"/>
<path d="M2250 1509 c0 -5 5 -7 10 -4 6 3 10 8 10 11 0 2 -4 4 -10 4 -5 0 -10
-5 -10 -11z"/>
<path d="M2525 1479 c-11 -16 -1 -19 13 -3 7 8 8 14 3 14 -5 0 -13 -5 -16 -11z"/>
<path d="M2163 1425 c0 -8 4 -15 9 -15 4 0 8 7 8 15 0 8 -4 15 -8 15 -5 0 -9
-7 -9 -15z"/>
<path d="M2137 1376 c-4 -10 -1 -13 8 -9 8 3 12 9 9 14 -7 12 -11 11 -17 -5z"/>
<path d="M2347 1349 c7 -7 15 -10 18 -7 3 3 -2 9 -12 12 -14 6 -15 5 -6 -5z"/>
<path d="M1954 1105 c-25 -19 -14 -19 22 0 16 8 22 15 13 15 -8 0 -24 -7 -35
-15z"/>
<path d="M2721 1618 c-6 -17 -10 -33 -8 -35 8 -7 49 46 42 56 -11 19 -23 12
-34 -21z"/>
<path d="M1042 1632 c-24 -7 -26 -11 -16 -36 3 -8 -1 -25 -10 -38 -15 -20 -16
-21 -16 -3 0 18 0 18 -15 -1 -8 -10 -15 -14 -15 -8 0 6 7 17 15 24 8 7 15 9
15 4 0 -5 4 -3 9 5 9 14 -8 43 -20 35 -7 -4 -59 -100 -59 -109 0 -3 16 -5 35
-5 37 0 36 0 89 93 15 26 23 47 19 46 -4 -1 -18 -4 -31 -7z"/>
<path d="M862 1610 c-103 -15 -122 -21 -122 -35 0 -27 -38 -55 -74 -55 -25 0
-40 7 -54 25 -19 24 -42 32 -54 19 -3 -3 14 -24 38 -46 l44 -40 124 7 123 7
32 58 c17 33 31 61 31 64 0 7 -17 6 -88 -4z m17 -66 c-8 -15 -20 -30 -28 -32
-9 -3 -11 0 -5 9 6 11 5 12 -7 3 -16 -13 -75 -26 -62 -14 4 5 17 10 28 13 12
4 8 5 -10 4 -16 -1 -30 3 -30 8 0 6 8 10 17 9 9 0 15 3 12 8 -3 4 -12 8 -21 8
-26 0 -8 11 23 14 19 2 33 -3 42 -15 14 -20 38 -27 27 -9 -11 17 4 45 16 33 8
-8 7 -19 -2 -39z"/>
<path d="M2737 1583 c-28 -25 -49 -60 -74 -121 -43 -108 -97 -208 -180 -335
-36 -54 -63 -100 -61 -102 8 -9 222 134 312 207 52 43 122 109 155 147 l60 70
-53 53 c-29 29 -68 67 -87 85 l-34 32 -38 -36z m52 -25 c-10 -7 -8 -8 7 -4 16
5 31 -6 67 -45 26 -28 44 -55 41 -60 -3 -5 -1 -9 4 -9 19 0 -59 -69 -81 -72
-14 -2 -21 -10 -21 -21 1 -9 -2 -17 -7 -17 -5 0 -9 -7 -9 -15 0 -26 -29 -29
-54 -6 -18 17 -25 19 -29 9 -4 -10 -8 -10 -16 2 -8 12 -10 8 -8 -15 2 -36 22
-59 39 -49 8 5 7 1 -2 -10 -8 -11 -16 -14 -18 -7 -2 6 -8 9 -12 6 -5 -3 -7
-12 -3 -20 3 -10 -1 -15 -12 -15 -9 0 -14 -4 -11 -9 4 -5 -2 -7 -12 -4 -10 2
-29 -5 -43 -17 l-24 -21 28 17 c15 9 30 14 33 12 2 -3 -20 -18 -50 -34 -30
-16 -53 -31 -50 -35 2 -4 -6 -5 -18 -2 -19 4 -20 3 -8 -7 10 -8 11 -10 2 -8
-8 2 -12 8 -11 13 5 21 56 95 61 90 3 -4 9 -1 14 6 4 8 3 10 -4 5 -18 -11 -15
-3 20 63 21 40 35 56 40 48 4 -7 7 4 6 25 -1 21 5 46 14 55 17 19 54 113 50
126 -4 14 16 7 22 -8 5 -13 9 -13 25 -3 11 7 18 14 16 17 -3 2 -11 -2 -20 -9
-13 -10 -15 -9 -15 9 0 13 9 25 23 30 26 10 45 2 26 -11z m51 -208 c0 -5 -2
-10 -4 -10 -3 0 -8 5 -11 10 -3 6 -1 10 4 10 6 0 11 -4 11 -10z m-110 -65 c0
-8 -7 -15 -15 -15 -9 0 -12 6 -9 15 4 8 10 15 15 15 5 0 9 -7 9 -15z"/>
<path d="M2155 1563 c-11 -21 -46 -72 -77 -114 -53 -71 -68 -99 -52 -99 4 0
13 8 20 18 23 29 108 157 108 162 0 3 10 15 23 28 26 25 30 42 10 42 -7 0 -21
-17 -32 -37z"/>
<path d="M345 1580 c-3 -5 -1 -10 4 -10 6 0 11 5 11 10 0 6 -2 10 -4 10 -3 0
-8 -4 -11 -10z"/>
<path d="M1430 1570 c-7 -13 -7 -20 0 -20 5 0 10 8 11 18 0 14 2 14 9 -3 7
-16 9 -17 9 -3 1 26 -17 31 -29 8z"/>
<path d="M2112 1575 c-7 -8 -9 -15 -4 -15 5 0 15 7 22 15 16 19 -1 19 -18 0z"/>
<path d="M263 1549 c-10 -26 -10 -30 3 -25 9 3 18 6 20 6 2 0 4 11 4 25 0 34
-13 31 -27 -6z"/>
<path d="M486 1538 c-3 -13 -6 -36 -6 -53 1 -28 2 -27 25 20 30 60 29 55 6 55
-11 0 -21 -9 -25 -22z"/>
<path d="M415 1542 c-11 -3 -31 -9 -45 -15 -14 -5 -33 -9 -43 -8 -15 2 -18 -3
-15 -25 3 -26 5 -27 68 -26 36 0 70 1 75 1 6 1 10 19 10 40 1 41 -2 42 -50 33z
m19 -37 c-4 -8 -14 -15 -23 -16 -9 0 -26 -2 -38 -3 -13 -2 -23 1 -23 6 0 4 11
8 24 8 14 0 28 5 31 10 10 16 35 12 29 -5z"/>
<path d="M525 1510 c-9 -17 -14 -34 -12 -37 3 -2 26 -3 52 -1 l46 3 -34 34
-35 33 -17 -32z"/>
<path d="M2620 1478 c-182 -164 -491 -359 -761 -482 -97 -44 -159 -85 -159
-105 0 -13 110 -43 123 -33 28 22 71 20 104 -5 l32 -25 68 22 c37 12 116 42
174 66 90 38 106 48 102 64 -7 28 42 73 72 68 13 -3 28 -2 32 1 10 7 99 136
131 191 53 91 137 269 130 275 -2 2 -23 -15 -48 -37z m-12 -73 c-3 -3 -9 2
-12 12 -6 14 -5 15 5 6 7 -7 10 -15 7 -18z m-21 -11 c3 -9 0 -20 -8 -25 -8 -5
-10 -9 -6 -9 10 0 -30 -69 -49 -85 -6 -5 -14 -22 -18 -36 -3 -14 -15 -38 -27
-53 -17 -22 -24 -25 -31 -14 -6 9 -7 6 -3 -8 6 -23 -16 -54 -38 -54 -7 0 -6
-4 3 -10 14 -9 12 -12 -6 -9 -4 0 -10 -5 -15 -12 -4 -7 -25 -12 -49 -11 -38 2
-42 0 -37 -19 4 -16 2 -19 -10 -15 -11 4 -13 2 -9 -9 3 -8 1 -15 -5 -15 -6 0
-9 -7 -5 -15 6 -17 -28 -39 -49 -31 -9 3 -12 0 -8 -10 4 -12 1 -15 -22 -14 -3
0 -19 -7 -36 -16 -17 -8 -40 -17 -50 -19 -11 -2 -33 -11 -49 -19 -16 -8 -40
-12 -52 -9 -16 3 -19 2 -10 -5 9 -6 3 -8 -20 -8 -33 1 -72 21 -79 41 -5 12
-71 8 -79 -5 -9 -15 -80 -17 -80 -2 0 11 120 65 127 58 3 -3 12 2 21 10 9 10
24 13 41 10 l26 -6 -25 14 c-24 14 -24 15 -5 21 11 4 32 11 47 17 15 6 31 10
35 10 4 0 11 5 15 12 5 8 23 13 47 11 37 -2 45 3 51 30 6 30 81 74 115 68 15
-3 16 -2 6 5 -10 7 -10 11 -1 17 7 4 16 1 22 -6 6 -10 7 -7 3 10 -5 16 -4 21
4 17 6 -4 11 -3 11 1 0 12 62 48 78 45 15 -3 42 21 42 38 0 6 4 9 9 6 12 -8
42 4 36 14 -6 10 33 45 42 37 4 -4 -2 -14 -13 -22 -10 -8 -14 -15 -7 -15 7 0
23 16 35 35 13 19 29 35 36 35 7 0 10 5 6 11 -4 8 1 9 17 4 21 -7 22 -6 10 9
-9 11 -10 16 -2 16 6 0 14 -7 18 -16z m-477 -314 c0 -5 -4 -10 -9 -10 -6 0
-13 5 -16 10 -3 6 1 10 9 10 9 0 16 -4 16 -10z m-40 -10 c0 -5 -5 -10 -11 -10
-5 0 -7 5 -4 10 3 6 8 10 11 10 2 0 4 -4 4 -10z m-185 -90 c-3 -5 -11 -10 -16
-10 -6 0 -7 5 -4 10 3 6 11 10 16 10 6 0 7 -4 4 -10z"/>
<path d="M2531 1323 c-10 -26 -10 -27 4 -9 8 11 15 23 15 28 0 15 -7 8 -19
-19z"/>
<path d="M2490 1290 c-9 -6 -10 -10 -3 -10 6 0 15 5 18 10 8 12 4 12 -15 0z"/>
<path d="M2315 1214 l-30 -26 33 16 c17 9 32 21 32 26 0 13 -1 13 -35 -16z"/>
<path d="M2186 1131 c-4 -5 3 -7 14 -4 23 6 26 13 6 13 -8 0 -17 -4 -20 -9z"/>
<path d="M2360 1106 c7 -7 13 -7 20 0 6 6 3 10 -10 10 -13 0 -16 -4 -10 -10z"/>
<path d="M1775 900 c3 -5 8 -10 11 -10 2 0 4 5 4 10 0 6 -5 10 -11 10 -5 0 -7
-4 -4 -10z"/>
<path d="M264 1495 c3 -8 1 -15 -4 -15 -6 0 -10 5 -10 11 0 5 -4 7 -10 4 -19
-11 -10 -23 20 -27 26 -4 30 -1 30 19 0 14 -6 23 -16 23 -10 0 -14 -6 -10 -15z"/>
<path d="M1190 1494 c-69 -7 -136 -13 -150 -13 -22 -1 -32 -15 -77 -104 l-51
-103 95 -58 c114 -71 385 -208 508 -259 l90 -37 83 88 c111 116 198 231 194
257 -4 23 -29 45 -51 44 -9 0 -4 -5 12 -11 32 -11 27 -28 -8 -28 -29 0 -45
-42 -27 -71 10 -15 9 -17 -5 -12 -12 5 -15 2 -10 -10 4 -12 -4 -24 -31 -42
-34 -23 -38 -24 -49 -8 -7 9 -13 13 -13 7 0 -5 7 -18 15 -28 15 -19 21 -46 9
-33 -9 9 -36 -21 -29 -33 3 -5 0 -7 -8 -4 -8 3 -20 -2 -27 -11 -7 -9 -8 -15
-2 -15 6 0 13 5 15 10 3 6 4 5 3 -2 -2 -7 -11 -13 -22 -13 -13 0 -18 -6 -16
-20 2 -11 1 -17 -3 -13 -3 3 -18 0 -33 -8 -14 -7 -29 -10 -32 -6 -6 8 -79 44
-95 47 -5 1 -17 3 -25 4 -9 1 -2 8 15 17 17 8 22 12 12 9 -59 -16 -70 -18 -63
-6 4 6 1 11 -6 11 -24 1 -88 36 -81 45 5 4 0 5 -10 2 -23 -9 -60 10 -51 25 5
8 1 9 -11 4 -10 -4 -21 -3 -24 1 -3 4 -35 23 -71 40 -36 18 -83 43 -105 56
-22 12 -51 29 -63 36 -13 7 -21 15 -19 18 3 2 15 0 26 -7 14 -7 21 -7 21 0 0
9 -8 12 -54 14 -25 1 -31 20 -13 38 8 8 18 24 21 36 4 12 12 19 18 16 6 -4 9
-1 6 7 -3 8 3 25 13 38 10 13 16 28 12 34 -4 6 0 8 10 4 9 -3 23 0 31 9 9 9
17 10 21 4 8 -13 58 -13 72 1 6 6 44 12 84 14 41 2 100 6 131 9 37 4 59 3 64
-5 4 -8 0 -9 -15 -4 -16 5 -20 3 -15 -9 3 -9 1 -16 -5 -16 -6 0 -11 4 -11 8 0
8 -85 0 -94 -9 -3 -2 22 -4 55 -3 32 0 62 3 65 7 13 13 44 -19 44 -46 0 -16 4
-26 10 -22 11 7 9 26 -9 70 -6 17 -14 36 -16 43 -5 15 -84 14 -255 -4z m-43
-30 c-3 -3 -12 -4 -19 -1 -8 3 -5 6 6 6 11 1 17 -2 13 -5z m705 -230 c-15 -10
-21 -22 -18 -33 5 -13 3 -12 -8 2 -20 26 -9 47 22 47 l26 0 -22 -16z m-102
-129 c-7 -9 -15 -13 -19 -10 -3 3 1 10 9 15 21 14 24 12 10 -5z"/>
<path d="M2046 1484 c-9 -8 -16 -22 -16 -30 0 -8 -4 -13 -9 -10 -5 3 -11 -4
-14 -16 -9 -31 -2 -33 17 -3 9 14 23 36 32 50 18 28 13 33 -10 9z"/>
<path d="M934 1473 c-27 -4 -35 -12 -64 -75 l-33 -70 24 -19 c13 -10 28 -19
32 -19 5 0 27 39 50 88 23 48 43 90 45 95 2 4 -2 6 -10 5 -7 0 -27 -3 -44 -5z
m6 -56 c0 -8 -3 -8 -9 1 -6 10 -10 8 -16 -10 -4 -12 -7 -27 -6 -31 2 -13 -19
-47 -30 -47 -6 0 -7 6 -3 12 5 7 9 20 9 29 3 43 55 86 55 46z"/>
<path d="M736 1461 l-69 -6 64 -49 c35 -27 69 -54 76 -59 9 -6 21 9 43 54 16
34 30 64 30 66 0 4 -50 2 -144 -6z m90 -42 c0 -10 -7 -19 -14 -19 -9 0 -12 -6
-8 -17 7 -17 6 -17 -11 0 -16 15 -16 19 -3 28 12 8 10 9 -7 4 -14 -4 -23 -2
-23 5 0 6 -5 8 -12 4 -6 -4 -8 -3 -5 2 3 5 23 10 44 11 32 2 39 -2 39 -18z"/>
<path d="M558 1452 c-61 -3 -67 -5 -72 -28 -24 -94 80 -480 140 -519 14 -9 27
-15 29 -13 1 2 10 28 20 58 24 77 89 256 114 313 12 27 21 50 21 52 0 4 -155
122 -175 134 -5 3 -40 5 -77 3z m36 -31 c3 -5 15 -7 26 -4 12 3 20 0 20 -6 0
-7 4 -10 9 -6 5 3 16 -3 23 -12 7 -10 30 -29 51 -43 20 -14 35 -30 33 -37 -3
-7 1 -10 10 -6 7 3 14 0 14 -6 0 -6 -4 -11 -9 -11 -5 0 -13 -15 -16 -32 -4
-18 -18 -57 -31 -86 -13 -29 -23 -55 -23 -57 0 -24 -15 -75 -22 -75 -4 0 -11
-20 -15 -45 -3 -25 -10 -45 -15 -45 -5 0 -6 -7 -2 -16 5 -14 3 -15 -15 -5 -12
7 -22 14 -22 17 0 3 5 2 10 -1 6 -4 -1 10 -15 31 -14 20 -25 46 -25 58 0 12
-7 34 -16 51 -8 16 -18 48 -21 70 -3 22 -8 45 -13 50 -4 6 -8 33 -9 60 -1 28
-7 66 -13 86 -15 51 2 79 47 79 18 0 36 -4 39 -9z"/>
<path d="M1218 1453 c7 -3 16 -2 19 1 4 3 -2 6 -13 5 -11 0 -14 -3 -6 -6z"/>
<path d="M234 1439 c-3 -5 0 -10 5 -10 6 -1 16 -2 22 -3 13 -1 39 -70 39 -103
0 -12 5 -25 10 -28 6 -4 8 -10 5 -14 -7 -12 61 -206 107 -301 49 -102 107
-200 120 -200 5 0 -2 15 -16 33 -31 41 -96 170 -136 271 -30 76 -90 301 -90
338 0 10 -6 18 -12 19 -7 0 -21 2 -30 4 -10 2 -20 -1 -24 -6z"/>
<path d="M383 1443 c-35 -2 -63 -7 -63 -11 0 -43 41 -212 67 -282 4 -8 7 -17
8 -20 29 -108 166 -360 196 -360 14 0 11 11 -18 65 -18 35 -45 95 -58 132 -13
37 -34 93 -46 123 -25 62 -31 174 -15 293 5 39 5 66 0 65 -5 -1 -37 -3 -71 -5z
m-23 -25 c0 7 5 10 11 6 7 -4 21 -8 33 -9 11 -1 24 -3 28 -4 4 0 4 -11 1 -23
-4 -13 -8 -70 -9 -128 -2 -86 1 -116 18 -165 12 -33 27 -66 35 -74 8 -7 12
-20 9 -27 -3 -8 -1 -14 5 -14 6 0 7 -4 4 -10 -3 -5 -2 -10 3 -10 6 0 8 -10 4
-22 -4 -16 -2 -19 8 -13 9 5 11 4 6 -4 -9 -14 -26 -5 -26 14 0 8 -12 36 -26
62 -31 59 -86 212 -79 223 3 5 1 10 -4 12 -4 1 -11 14 -15 28 -6 19 -5 21 3
10 7 -9 11 -10 11 -3 0 6 -4 14 -9 17 -10 6 -21 53 -27 111 -3 29 -2 36 6 25
7 -11 10 -11 10 -2z m178 -553 c6 -14 10 -25 8 -25 -2 0 -11 11 -20 25 -9 14
-13 25 -8 25 5 0 14 -11 20 -25z"/>
<path d="M3181 1434 c0 -11 3 -14 6 -6 3 7 2 16 -1 19 -3 4 -6 -2 -5 -13z"/>
<path d="M1408 1423 c7 -3 16 -2 19 1 4 3 -2 6 -13 5 -11 0 -14 -3 -6 -6z"/>
<path d="M2946 1373 c-15 -132 -74 -320 -144 -459 -44 -89 -56 -134 -31 -118
5 3 9 -1 9 -8 0 -22 65 54 129 151 33 51 61 97 61 102 0 5 11 26 23 47 23 36
77 168 77 187 0 12 -98 149 -109 153 -5 1 -11 -23 -15 -55z m71 -41 l40 -59
-33 -84 c-19 -46 -34 -85 -34 -87 0 -2 -5 0 -10 3 -6 4 -10 3 -9 -2 4 -20 -14
-72 -24 -66 -5 3 -8 2 -5 -3 8 -13 -85 -150 -100 -147 -7 2 -9 -4 -5 -14 5
-12 2 -15 -10 -10 -9 3 -19 1 -23 -5 -4 -7 -3 -8 4 -4 19 11 14 -9 -8 -35 -11
-14 -19 -18 -20 -11 0 7 -4 10 -10 7 -6 -3 -7 1 -4 9 3 9 10 16 16 16 5 0 6
-5 2 -12 -4 -7 -3 -8 4 -4 6 4 9 13 5 22 -3 8 2 22 10 32 8 9 19 29 22 45 4
15 11 30 16 33 5 3 6 -3 3 -13 -5 -15 -4 -15 4 -3 6 8 9 17 6 21 -2 4 4 24 13
45 9 22 16 45 14 53 -1 8 2 10 9 6 9 -5 10 -1 5 15 -5 17 -4 21 5 15 8 -5 11
-4 6 3 -3 6 0 30 8 54 8 24 20 69 27 101 7 31 16 57 20 57 5 0 6 14 3 30 -4
20 -2 30 5 30 7 0 9 5 6 10 -3 6 -4 10 -2 10 2 0 22 -26 44 -58z"/>
<path d="M1493 1410 c2 -8 -5 -25 -16 -38 -17 -18 -18 -25 -8 -35 10 -9 11 -8
5 7 -6 16 -4 18 10 13 10 -4 19 -7 22 -7 2 0 1 -8 -2 -17 -5 -17 -5 -17 6 0 6
9 19 17 28 16 14 0 13 -2 -3 -9 -17 -8 -17 -9 7 -7 15 1 24 5 21 10 -3 5 0 8
7 5 8 -2 18 -13 24 -24 15 -26 27 -34 52 -34 12 0 24 -6 27 -13 3 -9 16 -12
36 -9 23 3 31 1 29 -9 -2 -8 4 -14 12 -14 8 0 19 -4 23 -10 5 -6 7 -4 4 5 -2
8 -11 14 -21 12 -22 -4 -20 3 6 27 23 22 41 19 31 -5 -5 -14 -3 -14 15 -3 l22
14 -22 8 c-19 7 -20 10 -8 17 9 6 10 10 3 10 -6 0 -18 -7 -26 -15 -8 -7 -28
-17 -43 -20 -27 -5 -28 -5 -5 5 32 14 21 23 -13 10 -34 -12 -46 -6 -41 20 3
17 1 19 -13 11 -21 -12 -52 4 -52 25 0 10 -6 14 -14 11 -7 -3 -19 0 -25 6 -8
8 -11 8 -11 0 0 -8 -8 -8 -29 0 -17 6 -28 14 -26 17 2 3 -1 12 -6 20 -9 13
-10 13 -6 0z m30 -47 c-7 -2 -19 -2 -25 0 -7 3 -2 5 12 5 14 0 19 -2 13 -5z
m134 -59 c-3 -3 -12 -4 -19 -1 -8 3 -5 6 6 6 11 1 17 -2 13 -5z"/>
<path d="M3042 1408 c5 -13 38 -20 38 -8 0 4 -9 10 -21 13 -12 3 -19 1 -17 -5z"/>
<path d="M2870 1337 c-83 -89 -209 -190 -336 -269 -81 -50 -101 -67 -101 -86
0 -34 -31 -62 -68 -62 -26 0 -47 -15 -118 -83 l-87 -84 103 -18 c56 -10 170
-20 252 -22 l150 -5 38 60 c58 92 133 248 167 349 27 81 74 283 68 288 -2 1
-32 -29 -68 -68z m36 -29 c-2 -13 -8 -36 -15 -51 -6 -16 -11 -42 -11 -60 0
-29 -1 -30 -15 -11 -14 18 -14 17 -9 -11 6 -31 -9 -79 -59 -197 -13 -32 -28
-54 -32 -50 -5 4 -5 1 0 -7 4 -7 4 -16 -1 -20 -11 -8 -44 -61 -51 -83 -2 -9
-13 -18 -24 -21 -10 -3 -19 -11 -19 -19 0 -10 3 -9 10 2 6 9 10 10 10 3 0 -7
-9 -21 -20 -31 -19 -18 -39 -21 -155 -23 -39 -1 -275 30 -286 37 -6 3 7 23 29
43 22 21 47 50 57 64 14 21 21 25 35 17 24 -13 33 -13 25 0 -3 5 7 8 24 5 24
-3 29 0 24 13 -4 9 -3 14 2 10 12 -11 34 23 35 53 0 26 23 45 41 34 5 -4 6 1
3 10 -4 9 -3 15 2 14 11 -3 84 28 84 36 0 3 -9 1 -21 -5 -11 -7 -22 -10 -24
-8 -2 2 21 16 51 32 30 16 54 33 54 38 0 5 5 6 10 3 6 -3 10 -2 10 4 0 6 7 7
17 4 10 -4 14 -2 10 4 -9 14 19 37 33 28 6 -4 9 -2 8 4 -2 5 6 17 17 26 11 9
14 13 6 9 -10 -5 -12 -3 -7 5 5 7 14 10 21 7 8 -3 17 4 20 15 4 10 10 17 15
14 4 -3 11 3 14 12 6 15 8 15 17 3 9 -12 10 -10 6 7 -4 16 -1 20 11 16 11 -5
13 -3 7 8 -6 11 -5 12 6 2 7 -7 18 -13 24 -13 5 0 3 5 -5 11 -11 8 -12 12 -2
16 6 2 10 9 6 14 -3 5 -1 9 5 9 5 0 8 -10 7 -22z"/>
<path d="M2470 980 c0 -5 5 -10 10 -10 6 0 10 5 10 10 0 6 -4 10 -10 10 -5 0
-10 -4 -10 -10z"/>
<path d="M3166 1373 c-4 -21 -16 -66 -26 -100 -17 -56 -18 -66 -5 -95 l15 -33
-6 43 c-5 28 -1 61 11 97 9 30 18 60 19 67 1 7 5 19 10 26 5 8 4 18 -2 24 -6
6 -12 -4 -16 -29z"/>
<path d="M471 1310 c-1 -51 28 -239 43 -271 17 -40 63 -97 50 -64 -38 102 -59
175 -75 260 -9 55 -18 89 -18 75z"/>
<path d="M1540 1316 c0 -2 7 -7 16 -10 8 -3 12 -2 9 4 -6 10 -25 14 -25 6z"/>
<path d="M965 1300 c3 -5 8 -10 11 -10 2 0 4 5 4 10 0 6 -5 10 -11 10 -5 0 -7
-4 -4 -10z"/>
<path d="M787 1213 c-36 -89 -87 -236 -106 -306 -9 -37 -9 -38 29 -57 l38 -19
11 59 c15 74 63 221 101 304 15 35 25 68 21 73 -6 9 -45 33 -54 33 -2 0 -20
-39 -40 -87z m73 38 c0 -5 -4 -11 -9 -13 -6 -1 -12 -15 -15 -29 -5 -32 -26
-69 -46 -85 -8 -7 -12 -16 -7 -20 4 -4 7 -2 7 4 0 7 4 12 8 12 5 0 2 -23 -7
-51 -14 -45 -17 -48 -23 -28 -6 19 -7 18 -4 -8 1 -18 -1 -33 -5 -33 -4 0 -6
-10 -4 -22 3 -12 0 -26 -5 -33 -5 -6 -11 -24 -13 -40 -6 -44 -33 -40 -29 4 4
37 53 183 83 245 10 21 16 43 12 49 -4 6 -1 7 7 2 9 -6 10 -2 5 15 -5 15 -4
20 4 16 6 -4 14 0 17 8 7 17 24 22 24 7z"/>
<path d="M1630 1266 c0 -8 4 -17 9 -20 5 -4 7 3 4 14 -6 23 -13 26 -13 6z"/>
<path d="M456 1212 c3 -35 9 -73 14 -85 10 -24 4 37 -11 108 -7 31 -7 26 -3
-23z"/>
<path d="M867 1168 c-36 -87 -66 -181 -91 -285 l-14 -62 51 -19 c111 -41 147
-46 248 -33 119 15 264 49 409 97 l114 36 -35 17 c-18 9 -65 29 -104 45 -107
44 -292 140 -420 217 -63 38 -117 69 -119 69 -2 0 -19 -37 -39 -82z m76 30
c-2 -5 2 -8 9 -8 8 0 28 -13 46 -30 18 -16 40 -30 48 -30 8 0 14 -5 14 -11 0
-5 3 -8 8 -6 4 3 23 -3 42 -14 19 -10 31 -18 25 -19 -5 0 1 -7 13 -16 13 -9
29 -13 37 -10 8 3 15 1 15 -5 0 -6 7 -8 16 -5 8 3 12 2 9 -4 -3 -6 3 -10 15
-10 12 0 18 -4 15 -10 -4 -6 5 -10 19 -10 14 0 26 -5 26 -11 0 -5 5 -7 12 -3
7 4 8 3 4 -5 -4 -6 -1 -13 6 -16 7 -2 27 -10 43 -16 17 -7 35 -13 40 -14 31
-4 65 -26 59 -37 -6 -10 -4 -11 7 0 7 6 20 12 28 12 11 0 10 -4 -5 -15 -24
-18 -92 -39 -119 -36 -17 2 -18 0 -5 -9 14 -11 4 -11 -56 1 -24 4 -54 -2 -54
-12 0 -6 9 -8 20 -4 12 4 20 2 20 -5 0 -6 -10 -10 -22 -9 -13 2 -34 -1 -48 -6
-28 -9 -64 -16 -97 -18 -13 -1 -23 -5 -23 -9 0 -3 -17 -6 -37 -6 -21 0 -55 -3
-75 -6 -36 -6 -156 20 -195 43 -24 14 -8 14 20 0 21 -10 21 -10 -1 8 -22 18
-23 34 -9 113 6 33 59 160 67 160 4 0 6 10 3 23 -5 22 -5 22 11 2 15 -19 16
-19 6 8 -13 36 -13 40 1 31 7 -4 9 0 5 14 -6 16 -2 20 18 18 13 0 22 -4 19 -8z
m417 -218 c8 -5 11 -10 5 -10 -5 0 -17 5 -25 10 -8 5 -10 10 -5 10 6 0 17 -5
25 -10z m-35 -138 c-3 -3 -11 0 -18 7 -9 10 -8 11 6 5 10 -3 15 -9 12 -12z"/>
<path d="M1108 1043 c7 -3 16 -2 19 1 4 3 -2 6 -13 5 -11 0 -14 -3 -6 -6z"/>
<path d="M954 1010 c-40 -16 -35 -60 7 -60 18 0 34 28 23 39 -4 3 -9 0 -11 -6
-3 -7 -12 -13 -21 -13 -13 0 -11 5 8 20 28 21 25 32 -6 20z"/>
<path d="M1030 1245 c0 -2 10 -10 23 -16 20 -11 21 -11 8 4 -13 16 -31 23 -31
12z"/>
<path d="M1696 1233 c-6 -14 -5 -15 5 -6 7 7 10 15 7 18 -3 3 -9 -2 -12 -12z"/>
<path d="M3053 1173 c-49 -120 -178 -331 -233 -383 -3 -3 -18 -20 -35 -38
l-29 -32 34 6 c45 9 60 22 117 106 31 46 43 72 36 76 -8 5 -7 13 4 27 15 19
15 19 8 -4 -13 -42 14 -13 46 50 17 35 27 68 24 79 -3 10 -1 21 4 25 7 4 8 -1
4 -11 -4 -11 -3 -15 4 -11 6 4 24 39 39 77 20 52 25 75 18 91 -8 18 -14 10
-41 -58z m-72 -196 c-10 -9 -11 -8 -5 6 3 10 9 15 12 12 3 -3 0 -11 -7 -18z
m-54 -92 c0 -8 -4 -12 -9 -9 -5 3 -6 10 -3 15 9 13 12 11 12 -6z m-25 -32 c-6
-3 -9 -10 -6 -15 5 -7 2 -8 -6 -3 -10 6 -12 4 -6 -11 6 -15 5 -16 -5 -7 -10
10 -9 17 6 33 10 11 21 17 24 14 3 -4 0 -9 -7 -11z m-32 -49 c0 -8 -49 -54
-57 -54 -4 0 3 9 15 20 12 12 22 25 22 30 0 6 5 10 10 10 6 0 10 -3 10 -6z"/>
<path d="M1914 1223 c4 -10 4 -14 0 -11 -7 8 -25 -8 -89 -82 -26 -30 -79 -88
-117 -127 -39 -40 -66 -73 -60 -73 27 0 86 35 117 69 71 78 176 221 170 231
-11 17 -28 11 -21 -7z"/>
<path d="M1710 1203 c0 -14 7 -19 23 -19 13 1 21 -4 19 -12 -1 -8 2 -11 8 -7
16 10 12 32 -7 39 -10 3 -24 9 -30 12 -8 3 -13 -2 -13 -13z"/>
<path d="M1143 1178 c11 -10 29 -18 41 -17 17 1 16 2 -7 9 -16 5 -34 12 -41
17 -6 4 -3 0 7 -9z"/>
<path d="M1158 1193 c7 -3 16 -2 19 1 4 3 -2 6 -13 5 -11 0 -14 -3 -6 -6z"/>
<path d="M1657 1175 c21 -28 33 -32 33 -9 0 8 -4 12 -10 9 -5 -3 -10 1 -10 9
0 9 -7 16 -15 16 -14 0 -13 -3 2 -25z"/>
<path d="M3096 1145 c-9 -20 -16 -39 -16 -41 0 -3 -16 -37 -35 -76 -20 -39
-33 -73 -31 -75 5 -6 39 55 42 76 2 8 9 18 16 22 7 5 13 12 14 16 9 60 26 89
37 61 3 -7 6 -4 6 7 0 11 -3 26 -8 34 -7 11 -13 5 -25 -24z"/>
<path d="M1285 1110 c-3 -5 -1 -10 4 -10 6 0 11 5 11 10 0 6 -2 10 -4 10 -3 0
-8 -4 -11 -10z"/>
<path d="M550 920 c28 -71 71 -150 82 -150 4 0 8 11 8 24 0 13 3 37 6 53 4 22
2 32 -10 36 -14 6 -15 3 -5 -14 6 -11 8 -23 6 -26 -3 -3 -15 12 -25 34 -11 21
-34 52 -52 68 l-32 30 22 -55z"/>
<path d="M2270 926 c-21 -11 -184 -76 -273 -108 -15 -6 -26 -13 -23 -15 5 -5
146 -43 161 -43 10 0 122 105 169 159 22 25 6 28 -34 7z m-57 -78 c-15 -16
-33 -26 -41 -23 -7 2 -10 0 -7 -5 3 -6 -1 -10 -10 -10 -9 0 -14 -4 -10 -9 9
-16 -9 -20 -23 -5 -7 7 -13 17 -15 21 -2 8 -28 5 -37 -4 -3 -3 6 -3 19 0 18 4
21 3 13 -5 -8 -8 -18 -8 -34 -1 -21 10 -18 12 37 28 33 10 67 23 77 29 9 7 26
12 37 12 19 0 19 -2 -6 -28z"/>
<path d="M2190 855 c-7 -9 -8 -15 -2 -15 5 0 12 7 16 15 3 8 4 15 2 15 -2 0
-9 -7 -16 -15z"/>
<path d="M2981 913 c-7 -16 -35 -59 -63 -96 -28 -37 -49 -69 -47 -71 2 -1 15
3 29 11 14 7 19 13 10 13 -13 0 -13 1 0 10 8 5 11 10 7 10 -5 0 3 15 17 33 72
89 88 117 68 117 -5 0 -14 -12 -21 -27z"/>
<path d="M1670 915 c-17 -10 -20 -14 -9 -15 9 0 22 7 29 15 15 18 12 18 -20 0z"/>
<path d="M1574 862 c-102 -90 -157 -144 -141 -139 10 4 32 7 48 7 24 0 46 16
104 72 51 49 70 75 62 80 -21 14 -41 8 -73 -20z m26 -16 c0 -3 -4 -8 -10 -11
-5 -3 -10 -1 -10 4 0 6 5 11 10 11 6 0 10 -2 10 -4z"/>
<path d="M1500 858 c-96 -35 -323 -90 -424 -105 l-51 -7 85 -12 c47 -7 129
-13 182 -13 l97 -1 86 76 c70 63 98 91 83 83 -2 -1 -28 -10 -58 -21z m-85 -56
c16 -12 16 -32 0 -26 -8 4 -12 11 -8 17 3 6 1 7 -5 3 -7 -4 -12 -2 -12 3 0 13
11 14 25 3z m-16 -30 c8 -16 5 -19 -27 -21 -20 -1 -51 -4 -69 -5 -18 -2 -30 1
-27 6 3 4 1 8 -5 8 -5 0 -13 -4 -16 -10 -3 -5 -14 -10 -23 -10 -30 0 2 18 58
33 75 20 98 20 109 -1z"/>
<path d="M1611 804 c-48 -51 -57 -65 -40 -61 13 4 32 7 43 7 15 0 16 3 6 15
-7 8 -9 15 -5 15 4 0 13 -7 19 -15 10 -12 20 -12 84 2 64 14 72 19 72 39 0 18
-11 26 -55 43 -31 12 -57 21 -58 21 -2 0 -32 -30 -66 -66z m103 33 c4 4 4 0 1
-9 -5 -12 -1 -14 22 -10 15 2 25 2 22 -2 -3 -3 -21 -8 -40 -10 -47 -6 -47 -7
-19 -16 23 -7 23 -8 -9 -9 -27 -1 -32 2 -27 15 5 12 2 15 -10 10 -14 -5 -15
-4 -4 9 10 11 15 13 20 4 6 -8 9 -8 14 0 4 6 4 17 0 24 -6 9 -5 9 8 0 8 -7 18
-10 22 -6z"/>
<path d="M665 840 c-9 -15 38 -90 56 -90 11 0 18 11 21 30 4 26 0 33 -29 50
-39 23 -40 23 -48 10z m40 -28 c-3 -3 -11 0 -18 7 -9 10 -8 11 6 5 10 -3 15
-9 12 -12z m18 -29 c-3 -7 -6 -13 -8 -13 -2 0 -5 6 -8 13 -3 8 1 14 8 14 7 0
11 -6 8 -14z"/>
<path d="M758 775 c-5 -25 -5 -25 71 -24 l76 0 -70 24 c-38 14 -71 25 -71 25
-1 0 -4 -11 -6 -25z"/>
<path d="M2710 755 c-28 -41 -29 -45 -11 -45 19 0 81 45 81 58 0 4 -9 13 -20
19 -17 11 -23 8 -50 -32z m37 0 c-15 -16 -19 -13 -11 9 3 9 10 13 15 10 5 -3
3 -11 -4 -19z"/>
<path d="M655 780 c-4 -7 -2 -16 6 -21 18 -11 23 -4 11 17 -7 12 -11 13 -17 4z"/>
<path d="M1935 747 c-28 -44 -79 -49 -123 -12 l-30 26 -93 -21 c-51 -11 -109
-20 -129 -20 -28 -1 -46 -11 -91 -53 -57 -52 -185 -150 -273 -208 -30 -20 -44
-35 -38 -41 14 -14 235 -13 312 1 151 28 351 110 483 199 113 76 167 115 167
122 0 3 -28 12 -62 19 -35 7 -72 14 -83 17 -14 3 -26 -5 -40 -29z m65 -8 c-12
-8 -9 -9 13 -5 30 7 36 -7 10 -23 -10 -6 -14 -11 -10 -11 4 0 20 7 35 16 l27
16 -28 -26 c-20 -19 -35 -25 -50 -21 -16 5 -18 4 -8 -3 15 -11 -2 -27 -18 -17
-5 3 -13 0 -17 -6 -4 -8 -3 -9 4 -5 7 4 12 3 12 -3 0 -5 -14 -12 -30 -16 -17
-4 -28 -10 -25 -15 4 -7 -16 -19 -35 -22 -3 0 -21 -9 -40 -19 -19 -11 -41 -19
-48 -19 -7 0 -10 -5 -6 -11 5 -9 -2 -10 -22 -6 -16 3 -23 4 -16 1 6 -3 12 -10
12 -15 0 -6 -8 -6 -19 1 -24 12 -34 13 -26 1 3 -5 1 -12 -5 -16 -6 -4 -10 8
-10 29 0 39 14 45 51 25 22 -11 50 6 70 44 13 23 2 57 -17 57 -8 0 -12 5 -9
10 7 12 -54 14 -71 2 -15 -10 -37 -52 -27 -52 5 0 14 9 21 20 7 11 20 20 30
20 23 -1 58 -22 56 -35 -5 -45 -41 -58 -82 -29 -13 9 -30 13 -39 10 -8 -4 -21
-2 -28 4 -15 12 -85 22 -85 11 0 -4 -11 -13 -25 -19 -17 -8 -25 -20 -25 -37 0
-15 -4 -24 -9 -20 -6 3 -3 -15 5 -40 9 -25 20 -45 25 -45 5 0 9 -5 9 -12 0 -9
-3 -9 -12 0 -7 7 -23 12 -37 11 l-26 -1 25 -8 c22 -6 23 -8 7 -15 -10 -4 -21
-5 -24 -1 -3 3 -11 2 -18 -4 -15 -12 -234 -21 -260 -10 -11 5 -15 9 -9 9 6 1
28 12 48 26 21 14 42 22 48 19 6 -4 8 -3 5 3 -3 5 8 20 26 33 32 24 61 49 123
107 24 22 40 29 56 25 14 -3 19 -2 14 6 -4 7 -2 12 4 12 6 0 9 4 5 9 -3 5 0
13 6 17 7 4 10 3 6 -2 -3 -5 19 -9 48 -9 29 0 51 3 49 7 -3 4 8 10 23 14 15 3
35 8 43 11 28 10 60 12 55 2 -4 -5 5 -8 18 -7 13 1 38 -9 57 -22 18 -13 30
-19 26 -12 -5 9 4 12 31 12 21 0 46 7 56 14 19 15 23 31 5 20 -9 -5 -10 -4 -3
4 9 9 35 18 60 21 6 0 3 -4 -5 -10z m-343 -158 c7 -9 12 -32 10 -51 -3 -47
-40 -69 -85 -51 -35 15 -46 38 -37 80 10 48 81 62 112 22z m53 13 c0 -2 -7 -4
-15 -4 -8 0 -15 4 -15 10 0 5 7 7 15 4 8 -4 15 -8 15 -10z"/>
<path d="M1975 710 c-3 -6 1 -7 9 -4 18 7 21 14 7 14 -6 0 -13 -4 -16 -10z"/>
<path d="M1530 650 c0 -5 5 -10 10 -10 6 0 10 5 10 10 0 6 -4 10 -10 10 -5 0
-10 -4 -10 -10z"/>
<path d="M1480 620 c-8 -11 -29 -25 -47 -31 -18 -6 -33 -15 -33 -20 0 -6 -6
-7 -12 -3 -8 5 -7 0 2 -11 13 -15 15 -16 18 -3 2 9 22 24 45 34 41 18 57 31
57 47 0 14 -16 7 -30 -13z"/>
<path d="M1740 620 c0 -5 5 -10 10 -10 6 0 10 5 10 10 0 6 -4 10 -10 10 -5 0
-10 -4 -10 -10z"/>
<path d="M1877 619 c7 -7 15 -10 18 -7 3 3 -2 9 -12 12 -14 6 -15 5 -6 -5z"/>
<path d="M1443 555 c0 -8 4 -15 9 -15 4 0 8 7 8 15 0 8 -4 15 -8 15 -5 0 -9
-7 -9 -15z"/>
<path d="M550 756 c0 -2 8 -10 18 -17 15 -13 16 -12 3 4 -13 16 -21 21 -21 13z"/>
<path d="M602 730 c7 -11 16 -20 20 -20 5 0 8 9 8 20 0 13 -7 20 -20 20 -18 0
-19 -2 -8 -20z"/>
<path d="M657 727 c4 -8 25 -33 46 -57 l37 -44 0 31 c0 17 -7 36 -15 43 -18
15 -20 0 -2 -20 6 -8 2 -6 -11 5 -15 12 -19 21 -11 26 18 11 1 29 -27 29 -18
0 -23 -4 -17 -13z"/>
<path d="M725 730 c3 -5 8 -10 11 -10 2 0 4 5 4 10 0 6 -5 10 -11 10 -5 0 -7
-4 -4 -10z"/>
<path d="M754 731 c-15 -15 44 -111 68 -111 16 0 8 25 -13 38 -14 9 -18 19
-14 35 5 17 4 19 -4 7 -5 -8 -13 -11 -18 -7 -4 5 -1 12 7 17 21 13 30 12 36
-5 5 -12 8 -12 19 -2 8 9 33 12 71 9 33 -2 72 -3 88 -3 35 0 66 -15 66 -33 0
-20 27 -40 35 -26 3 5 -1 10 -9 10 -9 0 -16 4 -16 8 0 17 13 21 33 11 14 -8
18 -8 13 0 -5 7 8 11 41 11 98 0 153 -19 103 -35 -11 -4 -17 -11 -14 -17 5 -7
-2 -9 -22 -4 -20 5 -25 4 -14 -3 8 -6 12 -12 10 -13 -21 -17 -61 -38 -70 -38
-6 0 -27 -11 -48 -24 -21 -13 -53 -27 -72 -31 -33 -7 -34 -6 -15 9 23 18 13
21 -16 6 -15 -8 -21 -7 -25 4 -4 11 -14 14 -30 10 -18 -5 -32 3 -63 35 -24 24
-43 36 -46 30 -11 -16 74 -83 119 -94 23 -6 40 -16 39 -22 -3 -14 67 6 128 37
49 25 235 146 243 158 2 4 -57 8 -132 10 -74 1 -165 9 -201 17 -59 13 -266 17
-277 6z"/>
<path d="M2103 707 c-50 -45 -172 -126 -252 -168 l-63 -33 31 -11 c18 -6 29
-14 24 -19 -4 -5 -2 -6 5 -2 10 6 10 11 2 21 -9 11 -2 19 37 36 26 13 64 35
83 51 19 16 41 33 48 39 6 5 12 7 12 3 0 -4 9 2 21 14 11 12 25 19 31 16 7 -5
8 -2 3 6 -6 10 -4 12 9 7 14 -5 17 -3 12 8 -3 8 -2 14 2 13 4 -1 20 5 36 13
23 11 30 11 34 1 2 -7 8 -10 12 -7 5 3 48 1 97 -5 48 -6 109 -12 136 -12 26 0
47 -5 47 -11 0 -6 3 -7 6 -4 4 3 16 2 27 -4 14 -8 18 -8 13 0 -5 7 8 11 40 11
l47 0 -25 -23 c-13 -12 -22 -29 -20 -37 3 -9 -7 -4 -24 10 l-28 25 18 -29 18
-29 -47 -43 c-26 -23 -59 -48 -74 -56 -14 -7 -32 -19 -39 -25 -17 -16 -36 -17
-26 -1 4 7 3 8 -5 4 -6 -4 -9 -11 -7 -15 3 -4 -31 -24 -76 -45 -57 -26 -89
-36 -107 -31 -17 3 -21 2 -13 -3 11 -7 10 -10 -5 -15 -131 -39 -197 -57 -243
-63 -30 -4 -58 -9 -62 -10 -5 -1 -24 -2 -45 -3 -20 0 -33 -4 -29 -8 18 -18
311 33 370 64 17 10 41 18 53 20 25 2 208 91 257 125 54 38 136 123 131 136
-3 7 -1 11 4 7 5 -3 22 10 37 27 l27 33 -64 2 c-135 5 -302 25 -416 49 -16 3
-34 -6 -60 -29z"/>
<path d="M2860 719 c-39 -15 -92 -77 -81 -96 6 -11 10 -12 15 -4 4 6 5 11 1
11 -17 0 23 45 63 71 47 29 47 36 2 18z"/>
<path d="M589 703 c12 -24 31 -39 31 -25 0 5 -10 17 -21 28 -22 19 -22 19 -10
-3z"/>
<path d="M1437 713 c-27 -3 -62 -22 -125 -70 -86 -64 -203 -129 -274 -152 -21
-7 -38 -16 -38 -21 0 -16 88 -43 116 -36 36 9 162 96 242 166 128 111 137 119
127 118 -5 -1 -27 -3 -48 -5z m-71 -68 c-11 -8 -16 -15 -12 -15 4 0 4 -5 0
-11 -4 -8 -9 -7 -15 2 -5 9 -1 18 14 26 30 17 36 16 13 -2z m-38 -50 c-3 -3
-9 2 -12 12 -6 14 -5 15 5 6 7 -7 10 -15 7 -18z m-54 -39 c-21 -20 -42 -35
-46 -36 -3 0 -20 -12 -37 -26 -17 -14 -35 -23 -41 -19 -5 3 -10 2 -10 -3 0 -6
-14 -15 -30 -21 -17 -5 -28 -6 -25 -2 3 5 -2 11 -10 15 -8 3 -15 0 -15 -6 0
-6 -3 -8 -6 -5 -10 9 17 38 28 31 11 -7 78 26 78 39 0 5 11 6 25 3 15 -4 25
-2 25 4 0 6 -4 8 -10 5 -5 -3 -10 -3 -10 2 0 10 48 33 69 33 8 0 11 3 8 7 -4
3 1 12 11 19 10 8 21 9 26 3 6 -5 -5 -22 -30 -43z"/>
<path d="M1285 590 c-3 -5 -1 -10 4 -10 6 0 11 5 11 10 0 6 -2 10 -4 10 -3 0
-8 -4 -11 -10z"/>
<path d="M1235 550 c-3 -6 1 -7 9 -4 18 7 21 14 7 14 -6 0 -13 -4 -16 -10z"/>
<path d="M640 699 c0 -9 25 -42 55 -74 29 -32 56 -64 59 -72 3 -7 10 -13 15
-13 15 0 -10 43 -51 86 -20 22 -46 50 -57 64 -15 18 -20 21 -21 9z"/>
<path d="M2747 701 c-18 -6 -18 -7 1 -24 18 -16 20 -16 41 7 l22 24 -23 -1
c-13 0 -31 -3 -41 -6z"/>
<path d="M2665 690 c-8 -13 5 -13 25 0 13 8 13 10 -2 10 -9 0 -20 -4 -23 -10z"/>
<path d="M760 634 c6 -16 19 -37 28 -47 22 -24 102 -79 111 -75 4 2 -29 36
-72 77 -64 61 -76 69 -67 45z"/>
<path d="M2585 593 l-17 -28 23 22 c12 12 20 25 17 28 -3 3 -13 -7 -23 -22z"/>
<path d="M2000 590 c0 -5 5 -10 10 -10 6 0 10 5 10 10 0 6 -4 10 -10 10 -5 0
-10 -4 -10 -10z"/>
<path d="M2515 509 c-114 -89 -213 -158 -288 -201 -59 -33 -32 -28 49 9 30 13
54 29 54 34 0 6 3 8 8 6 4 -3 23 4 42 15 19 10 26 16 15 13 -19 -6 -19 -5 -2
12 13 13 20 15 25 6 5 -8 12 -7 27 4 18 14 18 15 2 9 -13 -4 -17 -2 -14 6 2 7
15 12 28 11 13 -1 18 1 11 4 -10 4 -8 11 9 29 12 13 27 24 32 24 6 0 24 10 41
23 53 40 60 42 46 17 -11 -20 -10 -21 9 -11 23 13 37 31 22 31 -5 0 -11 8 -13
19 -2 15 -21 5 -103 -60z"/>
<path d="M799 543 c12 -23 60 -53 83 -53 7 1 0 8 -17 17 -16 8 -41 25 -54 37
l-24 21 12 -22z"/>
<path d="M2625 503 c-39 -35 -39 -35 -7 -17 35 20 58 42 51 48 -2 2 -22 -12
-44 -31z"/>
<path d="M1659 456 c-140 -51 -272 -71 -415 -64 -54 3 -108 9 -119 12 -39 14
41 -28 100 -51 80 -33 179 -60 240 -67 35 -4 43 -3 25 3 -14 5 -37 9 -52 10
-16 1 -28 6 -28 12 0 6 -6 9 -14 6 -14 -6 -49 4 -111 28 -16 7 -37 15 -45 17
-8 3 -1 7 17 10 18 2 30 1 27 -4 -3 -4 2 -8 11 -8 9 0 14 3 12 8 -3 4 38 7 92
7 53 0 101 3 106 6 29 17 44 18 38 1 -3 -9 -12 -22 -20 -29 -9 -7 -11 -13 -4
-18 7 -4 20 14 32 42 l21 48 18 -23 c11 -13 21 -18 25 -12 3 5 0 10 -7 10 -7
1 -2 7 11 14 20 11 29 10 63 -6 22 -11 42 -17 45 -15 2 3 -5 8 -16 12 -12 3
-18 11 -15 17 4 6 -1 8 -16 3 -15 -5 -20 -4 -16 4 4 6 16 11 27 11 11 0 19 7
19 16 0 8 5 12 10 9 6 -4 17 -2 25 5 11 9 17 6 31 -15 16 -24 16 -26 -2 -40
-10 -7 -16 -17 -11 -21 4 -4 7 -2 7 5 0 7 5 9 10 6 11 -7 12 -4 15 38 1 15 -2
27 -7 27 -5 0 -7 4 -3 9 13 22 -16 16 -126 -23z"/>
<path d="M2525 470 c-10 -11 -22 -17 -26 -14 -5 3 -9 0 -9 -5 0 -6 3 -11 8
-11 12 0 68 49 56 50 -6 0 -19 -9 -29 -20z"/>
<path d="M864 465 c11 -8 22 -12 25 -9 6 6 -19 24 -34 24 -5 -1 -1 -7 9 -15z"/>
<path d="M2532 438 c-18 -11 -31 -23 -28 -25 2 -3 22 7 43 21 44 31 33 34 -15
4z"/>
<path d="M987 431 c-4 -15 0 -18 20 -16 17 2 23 -2 19 -11 -6 -16 12 -18 33
-5 11 7 4 14 -26 30 -39 20 -41 20 -46 2z"/>
<path d="M1735 440 c-3 -5 1 -10 10 -10 9 0 13 5 10 10 -3 6 -8 10 -10 10 -2
0 -7 -4 -10 -10z"/>
<path d="M2290 384 c-102 -52 -296 -113 -413 -129 -65 -10 -326 -6 -388 5
-105 18 -209 49 -307 92 -91 40 -95 40 -125 25 l-32 -15 35 5 c39 5 174 -42
164 -58 -3 -5 1 -6 9 -3 7 2 27 -1 43 -7 16 -7 32 -13 37 -14 4 -2 8 -3 10 -4
1 -2 13 -4 27 -7 14 -2 61 -12 105 -20 102 -21 390 -26 460 -8 114 28 157 36
162 30 4 -3 -1 -6 -10 -6 -10 0 -17 -4 -17 -10 0 -16 9 -13 120 41 96 46 210
114 210 125 0 2 -1 3 -2 3 -2 -1 -41 -21 -88 -45z"/>
<path d="M2415 360 c-3 -6 1 -7 9 -4 18 7 21 14 7 14 -6 0 -13 -4 -16 -10z"/>
<path d="M2330 320 c-9 -6 -10 -10 -3 -10 6 0 15 5 18 10 8 12 4 12 -15 0z"/>
<path d="M1520 278 c0 -4 24 -7 53 -7 54 1 49 5 -15 11 -21 2 -38 0 -38 -4z"/>
<path d="M1630 271 c0 -5 20 -9 45 -9 25 0 45 3 45 7 0 4 -20 8 -45 10 -25 1
-45 -2 -45 -8z"/>
<path d="M1730 269 c0 -5 5 -7 10 -4 6 3 10 8 10 11 0 2 -4 4 -10 4 -5 0 -10
-5 -10 -11z"/>
<path d="M2006 241 c-4 -5 3 -7 14 -4 23 6 26 13 6 13 -8 0 -17 -4 -20 -9z"/>
<path d="M2120 240 c-8 -5 -10 -10 -5 -10 6 0 17 5 25 10 8 5 11 10 5 10 -5 0
-17 -5 -25 -10z"/>
</g>
</svg>
